<svg width="474" height="485" viewBox="0 0 474 485" fill="none" xmlns="http://www.w3.org/2000/svg">
<path fill-rule="evenodd" clip-rule="evenodd" d="M329.016 199.549L332.97 195.301C343.888 183.571 361.589 183.571 372.508 195.301C383.426 207.031 383.426 226.049 372.508 237.779L336.924 276.009C332.556 280.701 325.476 280.701 321.108 276.009L285.524 237.779C274.606 226.049 274.606 207.031 285.524 195.301C296.443 183.571 314.144 183.571 325.062 195.301L329.016 199.549ZM354.856 202.008C354.69 202.008 360.024 202.008 360.024 202.008H367.776C367.776 202.008 362.705 202.008 354.856 202.008Z" fill="#00B4D8"/>
<path fill-rule="evenodd" clip-rule="evenodd" d="M389.82 407.651L392.989 404.246C401.742 394.843 415.932 394.843 424.685 404.246C433.438 413.649 433.438 428.895 424.685 438.298L396.159 468.946C392.658 472.707 386.982 472.707 383.481 468.946L354.955 438.298C346.202 428.895 346.202 413.649 354.955 404.246C363.707 394.843 377.898 394.843 386.65 404.246L389.82 407.651ZM410.535 409.622C410.402 409.622 414.678 409.622 414.678 409.622H420.892C420.892 409.622 416.827 409.622 410.535 409.622Z" fill="#00B4D8"/>
<path fill-rule="evenodd" clip-rule="evenodd" d="M432.26 292.538L434.889 289.714C442.147 281.916 453.915 281.916 461.173 289.714C468.431 297.512 468.431 310.154 461.173 317.952L437.517 343.367C434.614 346.486 429.907 346.486 427.003 343.367L403.348 317.952C396.09 310.154 396.09 297.512 403.348 289.714C410.606 281.916 422.374 281.916 429.632 289.714L432.26 292.538ZM449.438 294.172C449.328 294.172 452.874 294.172 452.874 294.172H458.028C458.028 294.172 454.656 294.172 449.438 294.172Z" fill="#00B4D8"/>
<path fill-rule="evenodd" clip-rule="evenodd" d="M308.577 333.413L311.206 330.589C318.464 322.791 330.232 322.791 337.49 330.589C344.748 338.387 344.748 351.029 337.49 358.827L313.834 384.242C310.931 387.361 306.224 387.361 303.321 384.242L279.665 358.827C272.407 351.029 272.407 338.387 279.665 330.589C286.923 322.791 298.691 322.791 305.949 330.589L308.577 333.413ZM325.756 335.047C325.645 335.047 329.191 335.047 329.191 335.047H334.345C334.345 335.047 330.974 335.047 325.756 335.047Z" fill="#00B4D8"/>
<path fill-rule="evenodd" clip-rule="evenodd" d="M62.016 28.5491L65.9698 24.3013C76.8878 12.5714 94.5895 12.5714 105.508 24.3013C116.426 36.0312 116.426 55.0492 105.508 66.7791L69.9236 105.009C65.5563 109.701 58.4757 109.701 54.1085 105.009L18.5245 66.7791C7.60642 55.0492 7.60643 36.0312 18.5245 24.3013C29.4425 12.5714 47.1442 12.5714 58.0622 24.3013L62.016 28.5491ZM87.8561 31.0079C87.6902 31.0079 93.0241 31.0079 93.0241 31.0079H100.776C100.776 31.0079 95.7051 31.0079 87.8561 31.0079Z" fill="#00B4D8"/>
<path fill-rule="evenodd" clip-rule="evenodd" d="M122.82 236.651L125.99 233.246C134.742 223.843 148.933 223.843 157.685 233.246C166.438 242.649 166.438 257.895 157.685 267.298L129.159 297.946C125.658 301.707 119.982 301.707 116.481 297.946L87.9548 267.298C79.2022 257.895 79.2023 242.649 87.9548 233.246C96.7073 223.843 110.898 223.843 119.65 233.246L122.82 236.651ZM143.535 238.622C143.402 238.622 147.678 238.622 147.678 238.622H153.892C153.892 238.622 149.827 238.622 143.535 238.622Z" fill="#00B4D8"/>
<path fill-rule="evenodd" clip-rule="evenodd" d="M165.26 121.538L167.889 118.714C175.147 110.916 186.915 110.916 194.173 118.714C201.431 126.512 201.431 139.154 194.173 146.952L170.517 172.367C167.614 175.486 162.907 175.486 160.003 172.367L136.347 146.952C129.089 139.154 129.089 126.512 136.347 118.714C143.606 110.916 155.373 110.916 162.632 118.714L165.26 121.538ZM182.438 123.172C182.328 123.172 185.874 123.172 185.874 123.172H191.027C191.027 123.172 187.656 123.172 182.438 123.172Z" fill="#00B4D8"/>
<path fill-rule="evenodd" clip-rule="evenodd" d="M41.5777 162.413L44.2061 159.589C51.4643 151.791 63.2322 151.791 70.4904 159.589C77.7486 167.387 77.7486 180.029 70.4904 187.827L46.8346 213.242C43.9313 216.361 39.2241 216.361 36.3209 213.242L12.6651 187.827C5.40689 180.029 5.40689 167.387 12.6651 159.589C19.9233 151.791 31.6911 151.791 38.9493 159.589L41.5777 162.413ZM58.7559 164.047C58.6456 164.047 62.1915 164.047 62.1915 164.047H67.3449C67.3449 164.047 63.9738 164.047 58.7559 164.047Z" fill="#00B4D8"/>
</svg>
