<svg width="21" height="18" viewBox="0 0 21 18" fill="none" xmlns="http://www.w3.org/2000/svg">
<path d="M7.72222 0.111328C6.68403 0.111328 5.82292 0.823134 5.57639 1.78494C5.54861 1.78494 5.52778 1.77799 5.5 1.77799C4.27431 1.77799 3.27778 2.77452 3.27778 4.00022C3.27778 4.16688 3.29861 4.33008 3.33681 4.48633C2.32292 4.90299 1.61111 5.89605 1.61111 7.05577C1.61111 7.49327 1.72222 7.89952 1.89931 8.26758C1.06597 8.74674 0.5 9.63563 0.5 10.6669C0.5 11.8231 1.20833 12.8162 2.21528 13.2329C2.18403 13.3926 2.16667 13.5558 2.16667 13.7224C2.16667 15.1044 3.28472 16.2224 4.66667 16.2224C4.80903 16.2224 4.94792 16.2051 5.08333 16.1808C5.41667 17.1704 6.34028 17.8891 7.44444 17.8891C8.82639 17.8891 9.94444 16.771 9.94444 15.3891V2.33355C9.94444 1.10786 8.94792 0.111328 7.72222 0.111328ZM20.5 10.6669C20.5 9.63563 19.934 8.74674 19.1007 8.26758C19.2813 7.89952 19.3889 7.49327 19.3889 7.05577C19.3889 5.89605 18.6771 4.90299 17.6632 4.48633C17.6979 4.33008 17.7222 4.16688 17.7222 4.00022C17.7222 2.77452 16.7257 1.77799 15.5 1.77799C15.4722 1.77799 15.4479 1.78494 15.4236 1.78494C15.1771 0.823134 14.316 0.111328 13.2778 0.111328C12.0521 0.111328 11.0556 1.10438 11.0556 2.33355V15.3891C11.0556 16.771 12.1736 17.8891 13.5556 17.8891C14.6597 17.8891 15.5833 17.1704 15.9167 16.1808C16.0521 16.2051 16.191 16.2224 16.3333 16.2224C17.7153 16.2224 18.8333 15.1044 18.8333 13.7224C18.8333 13.5558 18.816 13.3926 18.7847 13.2329C19.7917 12.8162 20.5 11.8231 20.5 10.6669Z" fill="white"/>
</svg>
