<svg width="140" height="100" viewBox="0 0 140 100" fill="none" xmlns="http://www.w3.org/2000/svg">
<rect width="140" height="100" rx="8" fill="white"/>
<path d="M50.4854 43.5293H50.4445V43.5331C50.4584 43.5319 50.4699 43.5308 50.4854 43.5293Z" fill="#168F8C"/>
<path d="M50.7422 43.1567V66.9667H56.3118V49.1224C56.3118 47.7897 55.6044 43.7635 50.7422 43.1567Z" fill="#0CA49D"/>
<path d="M21.1366 62.8234C21.8449 62.8234 22.4239 62.7331 22.8737 62.5526C23.323 62.3718 23.6747 62.1381 23.9289 61.8512C24.1825 61.5643 24.3568 61.2402 24.4521 60.8788C24.5473 60.518 24.5947 60.1513 24.5947 59.7794C24.5947 59.3545 24.5393 58.9719 24.428 58.6316C24.3175 58.2916 24.1268 58.0051 23.857 57.771C23.5877 57.5374 23.2305 57.3566 22.7864 57.2291C22.3422 57.1018 21.7817 57.0378 21.1047 57.0378H17.3615V62.8234H21.1366ZM17.3615 47.698V53.4358H20.1533C20.7452 53.4358 21.2796 53.3935 21.7554 53.3083C22.231 53.2232 22.6358 53.0747 22.9687 52.8618C23.3016 52.6496 23.5558 52.3575 23.7302 51.9854C23.9045 51.6136 23.992 51.1461 23.992 50.5829C23.992 50.0305 23.9231 49.5708 23.7858 49.2043C23.6481 48.8376 23.4366 48.5429 23.1512 48.3195C22.8658 48.0964 22.5033 47.9371 22.0648 47.8413C21.6259 47.7457 21.1047 47.698 20.5023 47.698H17.3615ZM20.5023 43.6655C22.099 43.6655 23.458 43.8146 24.579 44.1118C25.6996 44.4096 26.6146 44.829 27.3233 45.371C28.0315 45.9129 28.5469 46.5719 28.8698 47.3473C29.1921 48.1231 29.3535 48.989 29.3535 49.9454C29.3535 50.4659 29.2794 50.9682 29.1319 51.4515C28.9836 51.9352 28.7506 52.3865 28.4335 52.8061C28.1162 53.2261 27.709 53.6111 27.2121 53.9619C26.7147 54.3124 26.1177 54.6154 25.4198 54.87C26.9422 55.2421 28.0687 55.8423 28.7983 56.6713C29.5278 57.5 29.8932 58.5734 29.8932 59.8907C29.8932 60.8788 29.7027 61.7983 29.3218 62.6482C28.9412 63.4984 28.383 64.2395 27.6481 64.8715C26.9134 65.5038 26.0064 65.9978 24.9276 66.3538C23.8494 66.71 22.6172 66.8878 21.2321 66.8878H12V43.6655H20.5023Z" fill="#0CA49D"/>
<path d="M46.0094 48.3834C45.8506 48.6386 45.6844 48.8297 45.5096 48.9573C45.3352 49.0848 45.1106 49.1485 44.8356 49.1485C44.5924 49.1485 44.3307 49.0714 44.0504 48.9174C43.7703 48.7633 43.4528 48.5907 43.0988 48.3995C42.7445 48.2082 42.3398 48.0354 41.8852 47.8814C41.4308 47.7273 40.9124 47.6504 40.3304 47.6504C39.3258 47.6504 38.5777 47.8655 38.086 48.296C37.5944 48.7261 37.3483 49.3079 37.3483 50.0411C37.3483 50.5088 37.4966 50.8965 37.7925 51.2045C38.0883 51.5127 38.4774 51.7785 38.9588 52.0016C39.4398 52.2246 39.9899 52.4294 40.6084 52.6152C41.2269 52.8013 41.8587 53.0084 42.5037 53.2367C43.1488 53.4654 43.7811 53.7336 44.3994 54.0415C45.0181 54.3498 45.5682 54.7429 46.0492 55.221C46.5304 55.6992 46.9189 56.2809 47.215 56.9662C47.5109 57.6515 47.6592 58.4779 47.6592 59.4446C47.6592 60.5181 47.4744 61.5222 47.1043 62.4569C46.7338 63.3921 46.197 64.2077 45.494 64.9036C44.7904 65.5997 43.9236 66.1467 42.8928 66.5451C41.8615 66.9438 40.69 67.1429 39.379 67.1429C38.6599 67.1429 37.9273 67.0685 37.1821 66.92C36.4364 66.7711 35.7148 66.5611 35.0169 66.29C34.3187 66.0192 33.663 65.6979 33.0498 65.326C32.4359 64.9541 31.9021 64.5397 31.4475 64.0825L33.0337 61.5645C33.1609 61.3837 33.3271 61.2325 33.5333 61.1103C33.7395 60.9881 33.9642 60.927 34.208 60.927C34.5248 60.927 34.8444 61.0279 35.1675 61.2298C35.49 61.4318 35.8548 61.6548 36.2621 61.8993C36.669 62.1438 37.1369 62.3668 37.6658 62.5687C38.1943 62.7705 38.8184 62.8715 39.5377 62.8715C40.5104 62.8715 41.2667 62.6562 41.806 62.2261C42.3452 61.7956 42.6148 61.113 42.6148 60.178C42.6148 59.6359 42.4665 59.1952 42.1708 58.8549C41.8748 58.5151 41.4857 58.2334 41.0051 58.01C40.5232 57.787 39.9761 57.5904 39.3629 57.4205C38.7497 57.2508 38.1202 57.062 37.4755 56.8545C36.8301 56.6474 36.2009 56.3926 35.5878 56.0898C34.9741 55.7869 34.4268 55.3885 33.9463 54.8944C33.4646 54.4002 33.0759 53.784 32.78 53.0454C32.4841 52.307 32.3358 51.3959 32.3358 50.312C32.3358 49.441 32.5102 48.5907 32.8594 47.7617C33.2086 46.933 33.7211 46.1946 34.3979 45.5465C35.0749 44.8986 35.9053 44.3804 36.8884 43.9923C37.8718 43.6046 38.9981 43.4106 40.2673 43.4106C40.9756 43.4106 41.6657 43.4666 42.3375 43.5782C43.0087 43.6895 43.6461 43.8545 44.2488 44.0723C44.8519 44.2901 45.4146 44.5505 45.9381 44.8532C46.4617 45.1562 46.9294 45.4986 47.3418 45.8812L46.0094 48.3834Z" fill="#0CA49D"/>
<path d="M56.9226 34.5752C56.9104 34.3806 56.8882 34.189 56.8592 34C58.1054 35.2924 59.885 36.0501 61.8125 35.9277C62.7343 35.8689 63.5966 35.6139 64.3639 35.2073C63.7679 36.2524 63.4587 37.4782 63.5402 38.7701C63.6408 40.3694 64.3219 41.792 65.3626 42.8474C64.8302 42.7397 64.2756 42.6982 63.708 42.7345C61.4528 42.8777 59.5497 44.1899 58.5418 46.0458C58.1437 43.3025 56.0261 41.1698 53.3782 40.7005C55.6155 39.6018 57.0895 37.2273 56.9226 34.5752Z" fill="#F9AD3C"/>
<path d="M66.4792 57.4662C66.7345 57.4662 66.9545 57.4368 67.139 57.378C67.3236 57.3193 67.4743 57.2373 67.5913 57.1323C67.7112 57.024 67.7989 56.8972 67.8542 56.7518C67.9096 56.6035 67.9373 56.4412 67.9373 56.2649C67.9373 55.9217 67.8157 55.6512 67.5727 55.4533C67.3298 55.2523 66.9653 55.1518 66.4792 55.1518H65.0489V57.4662H66.4792ZM65.0489 52.2437V54.5118H66.2301C66.4824 54.5118 66.7006 54.484 66.8853 54.4282C67.0729 54.3727 67.2267 54.2954 67.3466 54.1964C67.4697 54.0973 67.5604 53.9784 67.6189 53.8393C67.6774 53.697 67.7066 53.5424 67.7066 53.3755C67.7066 52.9828 67.5897 52.6968 67.3558 52.5174C67.1221 52.3349 66.7591 52.2437 66.2669 52.2437H65.0489ZM66.2669 51.5342C66.673 51.5342 67.0222 51.5743 67.3144 51.6548C67.6097 51.7351 67.8512 51.8496 68.0388 51.9979C68.2294 52.1463 68.3694 52.3288 68.4587 52.5452C68.5478 52.7586 68.5924 52.9997 68.5924 53.2688C68.5924 53.4327 68.5662 53.5903 68.514 53.7419C68.4647 53.8902 68.3894 54.0295 68.2879 54.1593C68.1864 54.2891 68.0572 54.4067 67.9003 54.5118C67.7465 54.6138 67.565 54.6973 67.3558 54.7622C67.842 54.8549 68.2064 55.0297 68.4495 55.2863C68.6954 55.5399 68.8185 55.8738 68.8185 56.2881C68.8185 56.5695 68.7663 56.8261 68.6615 57.058C68.5602 57.2899 68.4094 57.4893 68.2094 57.6564C68.0126 57.8233 67.7697 57.9531 67.4805 58.0459C67.1914 58.1356 66.8622 58.1803 66.493 58.1803H64.1584V51.5342H66.2669Z" fill="#0CA49D"/>
<path d="M73.5449 55.713L72.5067 53.009C72.4761 52.9287 72.4436 52.8359 72.4098 52.7308C72.376 52.6225 72.3437 52.5082 72.3131 52.3876C72.2484 52.638 72.1823 52.8467 72.1146 53.0136L71.0764 55.713H73.5449ZM75.4089 58.1803H74.7169C74.6368 58.1803 74.5723 58.1604 74.5231 58.1201C74.4738 58.0799 74.437 58.029 74.4123 57.967L73.794 56.3623H70.8273L70.209 57.967C70.1906 58.0227 70.1552 58.0722 70.1029 58.1155C70.0506 58.1588 69.986 58.1803 69.9091 58.1803H69.217L71.8608 51.5342H72.7652L75.4089 58.1803Z" fill="#0CA49D"/>
<path d="M81.6357 51.5342V58.1803H81.1882C81.1173 58.1803 81.0575 58.1681 81.0082 58.1433C80.9621 58.1185 80.9159 58.0769 80.8698 58.0181L77.045 53.009C77.051 53.0863 77.0556 53.1622 77.0588 53.2362C77.0618 53.3105 77.0634 53.3801 77.0634 53.445V58.1803H76.2791V51.5342H76.7404C76.7803 51.5342 76.8141 51.5372 76.8419 51.5434C76.8696 51.5465 76.8942 51.5543 76.9156 51.5666C76.9372 51.5759 76.9587 51.5914 76.9803 51.6129C77.0019 51.6316 77.0249 51.6564 77.0496 51.6872L80.8744 56.6916C80.8682 56.6111 80.862 56.5339 80.856 56.4598C80.8528 56.3825 80.8514 56.3098 80.8514 56.2418V51.5342H81.6357Z" fill="#0CA49D"/>
<path d="M84.2167 54.4468H84.5535C84.6702 54.4468 84.7641 54.4329 84.8348 54.4051C84.9057 54.3741 84.9702 54.3232 85.0286 54.2521L87.2294 51.7475C87.2911 51.667 87.3556 51.6115 87.4232 51.5805C87.4909 51.5497 87.574 51.5342 87.6725 51.5342H88.429L85.9099 54.3958C85.8484 54.4701 85.7883 54.5319 85.7301 54.5814C85.6746 54.6277 85.6147 54.6663 85.55 54.6973C85.6331 54.7251 85.7084 54.7668 85.7761 54.8225C85.8438 54.8751 85.9099 54.9447 85.9745 55.0313L88.6044 58.1803H87.8293C87.7709 58.1803 87.7202 58.1773 87.6771 58.1711C87.6371 58.1618 87.6017 58.1495 87.571 58.134C87.5402 58.1155 87.5125 58.0954 87.4879 58.0737C87.4663 58.0491 87.4449 58.0211 87.4232 57.9903L85.144 55.3513C85.0825 55.274 85.0164 55.2199 84.9455 55.1889C84.8749 55.1549 84.7671 55.1379 84.6226 55.1379H84.2167V58.1803H83.326V51.5342H84.2167V54.4468Z" fill="#0CA49D"/>
<path d="M95.1786 52.5735C95.151 52.62 95.1202 52.6555 95.0863 52.6802C95.0557 52.702 95.0172 52.7128 94.971 52.7128C94.9187 52.7128 94.8573 52.6865 94.7864 52.6339C94.7157 52.5814 94.6266 52.524 94.5189 52.4622C94.4143 52.3974 94.2866 52.3386 94.1358 52.2861C93.9882 52.2334 93.8082 52.2072 93.5962 52.2072C93.3962 52.2072 93.2193 52.235 93.0655 52.2907C92.9148 52.3433 92.787 52.4159 92.6825 52.5087C92.581 52.6013 92.5041 52.7112 92.4518 52.838C92.3996 52.9616 92.3734 53.0961 92.3734 53.2414C92.3734 53.427 92.418 53.5816 92.5071 53.7053C92.5994 53.8259 92.7194 53.9294 92.8671 54.0159C93.0179 54.1027 93.1869 54.1784 93.3745 54.2432C93.5653 54.3052 93.7592 54.37 93.956 54.438C94.1558 54.5061 94.3497 54.5834 94.5373 54.6699C94.7281 54.7534 94.8973 54.8601 95.0449 54.9899C95.1956 55.1198 95.3156 55.2792 95.4047 55.4678C95.497 55.6564 95.5431 55.8883 95.5431 56.1634C95.5431 56.4541 95.494 56.7276 95.3955 56.9843C95.2972 57.2379 95.1526 57.4589 94.9618 57.6477C94.7742 57.8363 94.5419 57.9846 94.2652 58.0929C93.9913 58.201 93.6791 58.2552 93.3285 58.2552C92.8978 58.2552 92.5071 58.1779 92.1565 58.0233C91.8059 57.8657 91.5059 57.6537 91.2568 57.3878L91.5151 56.9611C91.5398 56.9271 91.569 56.8993 91.6028 56.8776C91.6397 56.853 91.6797 56.8405 91.7228 56.8405C91.7628 56.8405 91.8075 56.8576 91.8566 56.8917C91.909 56.9225 91.9675 56.9627 92.0319 57.0122C92.0966 57.0617 92.1703 57.1157 92.2534 57.1745C92.3365 57.2332 92.4302 57.2874 92.5349 57.3369C92.6425 57.3862 92.764 57.4281 92.8994 57.4621C93.0347 57.4929 93.1869 57.5084 93.3561 57.5084C93.5684 57.5084 93.7576 57.479 93.9238 57.4202C94.0898 57.3616 94.2297 57.2795 94.3435 57.1745C94.4604 57.0664 94.5497 56.938 94.6112 56.7896C94.6726 56.6411 94.7035 56.4756 94.7035 56.2933C94.7035 56.0924 94.6572 55.9285 94.5649 55.8017C94.4758 55.6717 94.3575 55.5636 94.2097 55.477C94.0621 55.3905 93.8929 55.3178 93.7021 55.2591C93.5115 55.1973 93.3177 55.1353 93.1208 55.0735C92.924 55.0085 92.7302 54.9344 92.5395 54.8509C92.3487 54.7673 92.1795 54.6592 92.0319 54.5262C91.8844 54.3933 91.7644 54.2279 91.6721 54.03C91.5828 53.8289 91.5384 53.5816 91.5384 53.2879C91.5384 53.0528 91.5828 52.8256 91.6721 52.6061C91.7644 52.3865 91.8966 52.1917 92.0688 52.0216C92.2442 51.8515 92.458 51.7155 92.7101 51.6134C92.9654 51.5116 93.2578 51.4604 93.5868 51.4604C93.956 51.4604 94.2912 51.5192 94.5927 51.6368C94.8973 51.7541 95.1648 51.9242 95.3955 52.1468L95.1786 52.5735Z" fill="#0CA49D"/>
<path d="M99.154 55.5321V58.1803H98.2589V55.5321L95.8367 51.5342H96.621C96.7009 51.5342 96.764 51.5543 96.8102 51.5944C96.8563 51.6316 96.8963 51.6809 96.9301 51.7429L98.4435 54.3262C98.4988 54.4345 98.5496 54.5365 98.5957 54.6323C98.6419 54.7251 98.6818 54.8193 98.7156 54.9153C98.7495 54.8193 98.7879 54.7251 98.831 54.6323C98.8742 54.5365 98.9219 54.4345 98.9741 54.3262L100.483 51.7429C100.511 51.6904 100.549 51.6423 100.598 51.599C100.647 51.5557 100.71 51.5342 100.787 51.5342H101.576L99.154 55.5321Z" fill="#0CA49D"/>
<path d="M105.293 55.713L104.255 53.009C104.224 52.9287 104.192 52.8359 104.158 52.7308C104.124 52.6225 104.092 52.5082 104.061 52.3876C103.996 52.638 103.93 52.8467 103.863 53.0136L102.824 55.713H105.293ZM107.157 58.1803H106.465C106.385 58.1803 106.32 58.1604 106.271 58.1201C106.222 58.0799 106.185 58.029 106.16 57.967L105.542 56.3623H102.575L101.957 57.967C101.939 58.0227 101.903 58.0722 101.851 58.1155C101.799 58.1588 101.734 58.1803 101.657 58.1803H100.965L103.609 51.5342H104.513L107.157 58.1803Z" fill="#0CA49D"/>
<path d="M109.858 54.7529C110.117 54.7529 110.344 54.7221 110.541 54.6601C110.741 54.5953 110.907 54.5055 111.039 54.3912C111.175 54.2736 111.276 54.1346 111.344 53.9737C111.412 53.8129 111.445 53.6352 111.445 53.4403C111.445 53.0446 111.316 52.7461 111.058 52.5452C110.799 52.3442 110.412 52.2437 109.895 52.2437H108.917V54.7529H109.858ZM112.913 58.1803H112.119C111.956 58.1803 111.836 58.1169 111.759 57.9903L110.043 55.6156C109.991 55.5413 109.934 55.4888 109.872 55.458C109.814 55.424 109.721 55.4069 109.595 55.4069H108.917V58.1803H108.027V51.5342H109.895C110.314 51.5342 110.675 51.5775 110.979 51.664C111.284 51.7475 111.535 51.8695 111.732 52.0304C111.931 52.1912 112.079 52.386 112.174 52.6149C112.27 52.8405 112.317 53.0941 112.317 53.3755C112.317 53.6104 112.281 53.83 112.207 54.0341C112.133 54.238 112.025 54.422 111.884 54.586C111.745 54.7467 111.575 54.8843 111.372 54.9987C111.172 55.1132 110.944 55.1997 110.689 55.2585C110.803 55.3233 110.901 55.4177 110.984 55.5413L112.913 58.1803Z" fill="#0CA49D"/>
<path d="M114.707 58.1803H113.812V51.5342H114.707V58.1803Z" fill="#0CA49D"/>
<path d="M119.909 55.713L118.871 53.009C118.84 52.9287 118.808 52.8359 118.774 52.7308C118.741 52.6225 118.708 52.5082 118.677 52.3876C118.613 52.638 118.547 52.8467 118.479 53.0136L117.441 55.713H119.909ZM121.773 58.1803H121.081C121.001 58.1803 120.937 58.1604 120.887 58.1201C120.838 58.0799 120.801 58.029 120.777 57.967L120.158 56.3623H117.192L116.573 57.967C116.555 58.0227 116.52 58.0722 116.467 58.1155C116.415 58.1588 116.35 58.1803 116.273 58.1803H115.581L118.225 51.5342H119.13L121.773 58.1803Z" fill="#0CA49D"/>
<path d="M128 51.5342V58.1803H127.105V55.1565H123.538V58.1803H122.643V51.5342H123.538V54.4979H127.105V51.5342H128Z" fill="#0CA49D"/>
<path d="M65.0535 66.9418H64.1584V60.2954H65.0535V66.9418Z" fill="#0CA49D"/>
<path d="M72.1011 60.2954V66.9418H71.6536C71.5829 66.9418 71.5228 66.9295 71.4737 66.9047C71.4275 66.88 71.3814 66.8381 71.3352 66.7795L67.5103 61.7704C67.5165 61.8477 67.5211 61.9234 67.5241 61.9976C67.5273 62.0719 67.5287 62.1414 67.5287 62.2064V66.9418H66.7444V60.2954H67.2057C67.2458 60.2954 67.2796 60.2986 67.3073 60.3048C67.3349 60.3079 67.3595 60.3155 67.3811 60.328C67.4026 60.3373 67.4242 60.3528 67.4456 60.3743C67.4672 60.3928 67.4903 60.4176 67.5149 60.4486L71.3398 65.4529C71.3338 65.3726 71.3276 65.2953 71.3214 65.221C71.3184 65.1437 71.3168 65.071 71.3168 65.003V60.2954H72.1011Z" fill="#0CA49D"/>
<path d="M79.5221 63.621C79.5221 64.1188 79.4437 64.5717 79.2869 64.9799C79.1299 65.388 78.9084 65.7375 78.6223 66.0281C78.3364 66.3188 77.9918 66.5444 77.5889 66.7052C77.189 66.8629 76.7461 66.9418 76.2601 66.9418H73.7916V60.2954H76.2601C76.7461 60.2954 77.189 60.3759 77.5889 60.5367C77.9918 60.6943 78.3364 60.92 78.6223 61.2138C78.9084 61.5045 79.1299 61.8539 79.2869 62.2619C79.4437 62.6701 79.5221 63.1232 79.5221 63.621ZM78.6039 63.621C78.6039 63.2128 78.5486 62.8479 78.4379 62.5264C78.3271 62.2048 78.1702 61.9326 77.9671 61.71C77.7643 61.4874 77.5182 61.3173 77.2291 61.2C76.9399 61.0824 76.6169 61.0236 76.2601 61.0236H74.6867V66.2135H76.2601C76.6169 66.2135 76.9399 66.1549 77.2291 66.0374C77.5182 65.9198 77.7643 65.7514 77.9671 65.5318C78.1702 65.3092 78.3271 65.037 78.4379 64.7156C78.5486 64.3939 78.6039 64.029 78.6039 63.621Z" fill="#0CA49D"/>
<path d="M86.9205 63.6209C86.9205 64.1186 86.842 64.5762 86.6851 64.9936C86.5283 65.408 86.3068 65.7651 86.0207 66.065C85.7347 66.365 85.3901 66.5984 84.9872 66.7653C84.5874 66.9293 84.1444 67.0113 83.6585 67.0113C83.1723 67.0113 82.7294 66.9293 82.3295 66.7653C81.9297 66.5984 81.5867 66.365 81.3007 66.065C81.0146 65.7651 80.7931 65.408 80.6363 64.9936C80.4794 64.5762 80.4009 64.1186 80.4009 63.6209C80.4009 63.1231 80.4794 62.667 80.6363 62.2526C80.7931 61.8351 81.0146 61.4766 81.3007 61.1765C81.5867 60.8736 81.9297 60.6386 82.3295 60.4716C82.7294 60.3047 83.1723 60.2212 83.6585 60.2212C84.1444 60.2212 84.5874 60.3047 84.9872 60.4716C85.3901 60.6386 85.7347 60.8736 86.0207 61.1765C86.3068 61.4766 86.5283 61.8351 86.6851 62.2526C86.842 62.667 86.9205 63.1231 86.9205 63.6209ZM86.0022 63.6209C86.0022 63.2127 85.947 62.8463 85.8362 62.5217C85.7255 62.197 85.5685 61.9233 85.3655 61.7006C85.1625 61.475 84.9164 61.3019 84.6272 61.1813C84.3381 61.0606 84.0151 61.0004 83.6585 61.0004C83.3047 61.0004 82.9833 61.0606 82.6941 61.1813C82.405 61.3019 82.1573 61.475 81.9513 61.7006C81.7482 61.9233 81.5913 62.197 81.4805 62.5217C81.3698 62.8463 81.3145 63.2127 81.3145 63.6209C81.3145 64.0289 81.3698 64.3954 81.4805 64.7201C81.5913 65.0415 81.7482 65.3153 81.9513 65.5409C82.1573 65.7635 82.405 65.9352 82.6941 66.0558C82.9833 66.1733 83.3047 66.2321 83.6585 66.2321C84.0151 66.2321 84.3381 66.1733 84.6272 66.0558C84.9164 65.9352 85.1625 65.7635 85.3655 65.5409C85.5685 65.3153 85.7255 65.0415 85.8362 64.7201C85.947 64.3954 86.0022 64.0289 86.0022 63.6209Z" fill="#0CA49D"/>
<path d="M93.5579 60.2954V66.9418H93.1103C93.0396 66.9418 92.9796 66.9295 92.9305 66.9047C92.8843 66.88 92.8382 66.8381 92.792 66.7795L88.9671 61.7704C88.9733 61.8477 88.9779 61.9234 88.9809 61.9976C88.9841 62.0719 88.9855 62.1414 88.9855 62.2064V66.9418H88.2012V60.2954H88.6625C88.7026 60.2954 88.7364 60.2986 88.764 60.3048C88.7917 60.3079 88.8163 60.3155 88.8379 60.328C88.8594 60.3373 88.881 60.3528 88.9026 60.3743C88.924 60.3928 88.9471 60.4176 88.9717 60.4486L92.7966 65.4529C92.7905 65.3726 92.7843 65.2953 92.7781 65.221C92.7751 65.1437 92.7735 65.071 92.7735 65.003V60.2954H93.5579Z" fill="#0CA49D"/>
<path d="M99.3267 66.2089L99.3221 66.9418H95.2479V60.2954H99.3221V61.0283H96.143V63.2359H98.7176V63.941H96.143V66.2089H99.3267Z" fill="#0CA49D"/>
<path d="M103.956 61.3343C103.928 61.3806 103.897 61.4162 103.864 61.441C103.833 61.4625 103.794 61.4734 103.748 61.4734C103.696 61.4734 103.634 61.4472 103.564 61.3945C103.493 61.3419 103.404 61.2848 103.296 61.223C103.192 61.158 103.064 61.0992 102.913 61.0467C102.765 60.9941 102.585 60.9679 102.373 60.9679C102.173 60.9679 101.997 60.9957 101.843 61.0513C101.692 61.1038 101.564 61.1765 101.46 61.2693C101.358 61.3621 101.281 61.4718 101.229 61.5986C101.177 61.7224 101.151 61.8568 101.151 62.0021C101.151 62.1877 101.195 62.3423 101.284 62.4659C101.377 62.5865 101.497 62.6901 101.644 62.7767C101.795 62.8632 101.964 62.9391 102.152 63.0039C102.343 63.0657 102.536 63.1307 102.733 63.1988C102.933 63.2668 103.127 63.3441 103.315 63.4307C103.505 63.5142 103.674 63.6209 103.822 63.7507C103.973 63.8805 104.093 64.0397 104.182 64.2283C104.274 64.4169 104.32 64.6488 104.32 64.9242C104.32 65.2148 104.271 65.4884 104.173 65.745C104.074 65.9986 103.93 66.2196 103.739 66.4082C103.551 66.5968 103.319 66.7454 103.042 66.8535C102.768 66.9618 102.456 67.0159 102.106 67.0159C101.675 67.0159 101.284 66.9386 100.934 66.784C100.583 66.6262 100.283 66.4145 100.034 66.1486L100.292 65.7219C100.317 65.6878 100.346 65.6601 100.38 65.6383C100.417 65.6136 100.457 65.6013 100.5 65.6013C100.54 65.6013 100.585 65.6182 100.634 65.6522C100.686 65.6832 100.745 65.7235 100.809 65.7728C100.874 65.8223 100.948 65.8764 101.031 65.9352C101.114 65.994 101.207 66.0481 101.312 66.0975C101.42 66.147 101.541 66.1888 101.677 66.2227C101.812 66.2536 101.964 66.2691 102.133 66.2691C102.346 66.2691 102.535 66.2398 102.701 66.181C102.867 66.1222 103.007 66.0403 103.121 65.9352C103.238 65.8269 103.327 65.6987 103.388 65.5502C103.45 65.4018 103.481 65.2364 103.481 65.054C103.481 64.8529 103.434 64.6891 103.342 64.5623C103.253 64.4324 103.135 64.3243 102.987 64.2376C102.839 64.151 102.67 64.0784 102.479 64.0196C102.289 63.9578 102.095 63.896 101.898 63.8342C101.701 63.7692 101.507 63.6949 101.317 63.6116C101.126 63.5281 100.957 63.4198 100.809 63.2869C100.662 63.1539 100.542 62.9884 100.449 62.7906C100.36 62.5897 100.315 62.3423 100.315 62.0485C100.315 61.8135 100.36 61.5863 100.449 61.3667C100.542 61.1473 100.674 60.9525 100.846 60.7824C101.021 60.6123 101.235 60.4762 101.487 60.3742C101.743 60.2721 102.035 60.2212 102.364 60.2212C102.733 60.2212 103.068 60.28 103.37 60.3973C103.674 60.5149 103.942 60.685 104.173 60.9076L103.956 61.3343Z" fill="#0CA49D"/>
<path d="M106.479 66.9418H105.584V60.2954H106.479V66.9418Z" fill="#0CA49D"/>
<path d="M111.682 64.4744L110.644 61.7704C110.613 61.6899 110.581 61.5973 110.547 61.492C110.513 61.3839 110.481 61.2694 110.45 61.1488C110.385 61.3992 110.319 61.608 110.252 61.775L109.213 64.4744H111.682ZM113.546 66.9418H112.854C112.774 66.9418 112.709 66.9216 112.66 66.8814C112.611 66.8413 112.574 66.7902 112.549 66.7284L111.931 65.1236H108.964L108.346 66.7284C108.328 66.7841 108.292 66.8335 108.24 66.8767C108.188 66.9202 108.123 66.9418 108.046 66.9418H107.354L109.998 60.2954H110.902L113.546 66.9418Z" fill="#0CA49D"/>
</svg>
