<svg width="140" height="100" viewBox="0 0 140 100" fill="none" xmlns="http://www.w3.org/2000/svg">
<rect width="140" height="100" rx="8" fill="white"/>
<path fill-rule="evenodd" clip-rule="evenodd" d="M22.5733 38.2947C23.901 38.0783 25.2632 38.1034 26.5972 38.2367C27.834 38.4922 29.0818 38.7775 30.2167 39.3496C32.5132 40.4454 34.468 42.2214 35.7706 44.4082C36.8507 46.4288 37.5937 48.6955 37.4824 51.0108C37.5137 55.7636 34.5024 60.2923 30.2371 62.3129C27.4719 63.6281 24.2553 63.8084 21.3004 63.0873C19.3017 62.4728 17.3736 61.479 15.9174 59.9522C14.5301 58.6652 13.4829 57.0255 12.8183 55.2604C11.9514 53.0894 11.873 50.6753 12.2414 48.3882C12.9155 44.9913 15.0144 41.8765 17.985 40.0707C19.3676 39.16 20.9571 38.6191 22.5733 38.2947ZM20.7988 44.3946C19.7987 44.4965 18.7061 44.8476 18.1528 45.7505C17.5414 46.6154 17.4776 47.6971 17.417 48.7247C17.4121 48.8091 17.4071 48.8931 17.4019 48.9766C17.3894 49.2358 17.3663 49.4947 17.3431 49.7536L17.3431 49.7536C17.2964 50.276 17.2497 50.7987 17.2906 51.3248C17.3211 51.6801 17.3426 52.0365 17.3641 52.393C17.4178 53.2838 17.4716 54.175 17.6652 55.0493C17.9051 56.1513 18.8973 57.0057 19.9915 57.2063C22.0307 57.5739 24.1081 57.5416 26.173 57.5095C26.3621 57.5066 26.551 57.5036 26.7399 57.501C27.5848 57.454 28.4297 57.3678 29.2652 57.2345C30.5162 57.0715 31.6213 56.0526 31.8266 54.7985C32.1856 53.2607 32.2499 51.6744 32.1433 50.1052C31.9426 49.0989 31.231 48.1912 30.2638 47.8229C29.828 47.6123 29.3447 47.6136 28.8706 47.6149C28.787 47.6151 28.7037 47.6153 28.621 47.6144C27.6884 47.6155 26.7558 47.615 25.8233 47.6145H25.8232C24.1914 47.6136 22.5599 47.6127 20.9289 47.6206C20.7414 47.6241 20.5664 47.56 20.393 47.4964C20.3286 47.4728 20.2645 47.4493 20.2 47.4294C20.1953 47.0783 20.2078 46.5531 20.6797 46.5437C21.9083 46.516 23.138 46.5242 24.3677 46.5323C25.9872 46.5431 27.6066 46.5539 29.2229 46.4826C29.0473 45.6674 28.5504 44.8163 27.6945 44.5905C26.9217 44.3836 26.1223 44.2786 25.3275 44.2049C25.1008 44.2021 24.8738 44.1977 24.6466 44.1934H24.6466C23.3591 44.1688 22.0659 44.1441 20.7988 44.3946ZM29.552 51.2419C29.1397 51.1306 28.6459 51.2937 28.5017 51.7185C28.4112 52.2075 28.5562 52.6787 28.7003 53.1467C28.7608 53.3433 28.8212 53.5393 28.8638 53.7359C28.9108 53.7634 28.9814 53.8041 29.0519 53.8449C29.1225 53.8856 29.193 53.9264 29.24 53.9538C29.4015 53.8598 29.5661 53.7751 29.737 53.7014C29.7554 53.2878 29.8551 52.8899 29.9547 52.4921C29.999 52.3157 30.0432 52.1392 30.0803 51.9614C30.0034 51.6683 29.8106 51.4003 29.552 51.2419Z" fill="#01ACD7"/>
<path fill-rule="evenodd" clip-rule="evenodd" d="M53.5875 42.202C52.3789 41.7286 51.037 41.7819 49.7704 41.9386C47.0303 42.3619 44.6257 44.453 43.8137 47.1038C43.4453 48.154 43.4531 49.2874 43.5503 50.3831C43.8779 53.1859 45.9863 55.647 48.6622 56.5045C50.5589 57.0782 52.7472 57.097 54.4982 56.0702C54.7269 55.9437 54.9346 55.7875 55.1423 55.6311L55.1424 55.6311L55.1424 55.6311L55.1424 55.6311L55.1424 55.6311C55.3363 55.4852 55.5302 55.3393 55.7413 55.2175L55.7445 55.3631C55.7705 56.5185 55.7999 57.8252 54.923 58.6975C54.3352 59.4154 53.4464 59.7932 52.5482 59.9312C50.6059 60.287 48.5524 59.6239 47.1087 58.2946C46.7878 58.6215 46.4515 58.9338 46.1153 59.2461C45.5713 59.7513 45.0274 60.2564 44.5489 60.8231C46.06 62.2527 47.974 63.2842 50.0495 63.5585C52.0779 63.814 54.2599 63.6902 56.0673 62.6478C57.6004 61.7966 58.8075 60.3434 59.2809 58.6489C59.5747 57.8045 59.5707 56.9025 59.5668 56.02V56.02L59.5662 55.8712C59.5646 51.1982 59.5646 46.5269 59.5662 41.854C58.8316 41.8449 58.0971 41.8453 57.3626 41.8457C56.8321 41.846 56.3016 41.8463 55.7711 41.843C55.7714 41.9713 55.7722 42.0997 55.7729 42.228V42.2281C55.7752 42.6453 55.7775 43.0624 55.7679 43.4795C55.1143 42.945 54.3916 42.4732 53.5875 42.202ZM48.7735 46.2745C49.4021 45.7165 50.236 45.5033 51.0496 45.3826C52.6689 45.1365 54.4904 45.8779 55.3196 47.3279C55.654 47.9154 55.6401 48.5795 55.6263 49.2372V49.2373C55.6215 49.4675 55.6167 49.697 55.6269 49.9222C55.7632 51.3048 54.6863 52.5244 53.4526 52.9947C51.9619 53.5559 50.1231 53.5935 48.8221 52.5573C46.872 51.0948 46.8328 47.7574 48.7735 46.2745ZM86.892 41.8461C85.2711 41.8352 83.5813 42.3195 82.4135 43.4889C82.4031 43.3394 82.3934 43.1901 82.3837 43.041C82.3669 42.7837 82.3502 42.527 82.3304 42.2709C81.0544 42.2553 79.7784 42.2506 78.5024 42.2709C78.5042 46.1397 78.5039 50.0085 78.5037 53.8772C78.5035 56.7788 78.5033 59.6803 78.5039 62.5819C79.4005 62.6397 80.2993 62.6347 81.1978 62.6296H81.1979C81.6158 62.6273 82.0336 62.625 82.4511 62.6289C82.4803 60.8364 82.4738 59.043 82.4673 57.2494C82.4651 56.6369 82.4628 56.0244 82.4621 55.4119C85.2774 57.6488 89.7591 57.4027 92.2907 54.8366C95.0465 52.0729 95.2048 47.1476 92.5509 44.2633C91.1542 42.6581 89.0098 41.7709 86.892 41.8461ZM82.647 47.6649C83.0593 46.425 84.3196 45.6851 85.5439 45.4421C86.8058 45.1866 88.2166 45.5048 89.1916 46.3639C90.8438 47.8656 90.8564 50.7515 89.2982 52.3238C87.7353 53.8365 84.9702 53.8082 83.4167 52.2955C82.7552 51.7108 82.4088 50.7954 82.4668 49.9207C82.4797 49.69 82.4736 49.456 82.4674 49.2218C82.4534 48.6918 82.4394 48.1607 82.647 47.6649ZM67.056 42.0389C69.2835 41.5906 71.7211 41.8602 73.6602 43.1002C75.1352 43.9906 76.2576 45.4343 76.7592 47.0818C77.4474 49.2466 77.1386 51.7234 75.8501 53.6076C74.5693 55.5059 72.3826 56.669 70.1253 56.8869C68.7349 56.981 67.2974 56.934 65.9822 56.4276C63.8033 55.6956 61.9755 53.8976 61.3328 51.6763C60.6431 49.5946 60.9629 47.2119 62.1448 45.3685C63.239 43.6441 65.073 42.4669 67.056 42.0389ZM67.9887 45.4625C67.4338 45.6208 66.9149 45.8967 66.4603 46.2494C64.8865 47.4894 64.5024 49.941 65.6232 51.6011C66.9039 53.7126 70.2084 54.1296 71.9421 52.3614C72.7902 51.5823 73.193 50.4192 73.0802 49.2795C73.1758 46.7526 70.373 44.7163 67.9887 45.4625ZM104.377 41.9402C102.096 41.6408 99.6254 41.959 97.7333 43.3526C96.6407 44.221 95.7064 45.4155 95.5215 46.8357C96.0661 46.929 96.6064 47.0468 97.1466 47.1646L97.1467 47.1646C97.8504 47.3181 98.5541 47.4716 99.2679 47.5709C99.5768 46.3309 100.652 45.3449 101.914 45.1412C102.731 45.0001 103.58 45.0424 104.375 45.2838C105.07 45.5095 105.598 46.2698 105.294 46.994C104.727 47.5105 103.957 47.6667 103.223 47.8155C103.128 47.8346 103.034 47.8537 102.941 47.8734C102.814 47.8916 102.686 47.9096 102.559 47.9277C100.695 48.1909 98.7579 48.4646 97.1721 49.5413C95.2111 50.9129 95.2032 54.1406 97.0169 55.6392C98.5139 56.9261 100.622 57.0735 102.5 56.8242C103.8 56.5813 105.109 56.0185 105.938 54.9479C105.943 55.212 105.943 55.4761 105.943 55.7405C105.943 56.0048 105.943 56.2693 105.947 56.5342C106.233 56.5339 106.519 56.5329 106.806 56.532L106.806 56.532C107.713 56.5291 108.622 56.5262 109.531 56.5405C109.534 54.7695 109.534 52.9991 109.533 51.2288C109.533 49.9013 109.533 48.5738 109.534 47.2464C109.548 46.1695 109.155 45.1208 108.562 44.2335C107.6 42.8823 105.966 42.2004 104.377 41.9402ZM99.4419 52.6686C99.235 52.178 99.6348 51.6936 100.034 51.4522C100.841 51.0079 101.748 50.8421 102.654 50.6767C103.745 50.4773 104.834 50.2784 105.74 49.593C105.732 49.8083 105.739 50.0336 105.746 50.262V50.2622C105.769 51.0335 105.794 51.8406 105.228 52.4162C104.134 53.5073 102.467 53.7079 100.995 53.6139C100.384 53.5778 99.5799 53.3662 99.4419 52.6686ZM111.109 42.26C110.687 42.2608 110.266 42.2615 109.844 42.2615C110.956 44.5851 112.093 46.8969 113.23 49.2089C114.296 51.3782 115.363 53.5476 116.409 55.7269C115.895 56.8578 115.336 57.968 114.777 59.0781C114.185 60.2515 113.594 61.4249 113.056 62.6227C113.509 62.6207 113.962 62.6242 114.415 62.6277C115.423 62.6355 116.431 62.6432 117.438 62.5913C120.74 55.8226 124.04 49.0538 127.337 42.2819C125.855 42.2443 124.376 42.2506 122.896 42.2756C121.476 45.3935 120.038 48.5052 118.593 51.6105C118.167 50.6903 117.736 49.7722 117.305 48.8541C116.602 47.3543 115.898 45.8546 115.215 44.3464C115.105 44.1009 114.985 43.8602 114.864 43.6196C114.643 43.1782 114.422 42.737 114.27 42.2662C113.216 42.2562 112.162 42.2581 111.109 42.26Z" fill="#010101"/>
</svg>
