<svg width="79" height="79" viewBox="0 0 79 79" fill="none" xmlns="http://www.w3.org/2000/svg">
<rect x="0.988044" y="0.988044" width="77.4071" height="77.4071" rx="38.7036" stroke="white" stroke-width="1.20949"/>
<path d="M56.6245 17.9209C57.9076 17.9209 59.1381 18.4306 60.0454 19.3379C60.9527 20.2452 61.4624 21.4757 61.4624 22.7588V56.6245C61.4624 57.9076 60.9527 59.1381 60.0454 60.0454C59.1381 60.9527 57.9076 61.4624 56.6245 61.4624H22.7588C21.4757 61.4624 20.2452 60.9527 19.3379 60.0454C18.4306 59.1381 17.9209 57.9076 17.9209 56.6245V22.7588C17.9209 21.4757 18.4306 20.2452 19.3379 19.3379C20.2452 18.4306 21.4757 17.9209 22.7588 17.9209H56.6245ZM55.415 55.415V42.5944C55.415 40.503 54.5841 38.4972 53.1053 37.0183C51.6264 35.5394 49.6206 34.7086 47.5291 34.7086C45.473 34.7086 43.0782 35.9664 41.9171 37.8532V35.1682H35.1682V55.415H41.9171V43.4894C41.9171 41.6268 43.4169 40.1029 45.2795 40.1029C46.1776 40.1029 47.039 40.4597 47.6741 41.0948C48.3092 41.7299 48.666 42.5913 48.666 43.4894V55.415H55.415ZM27.3065 31.3704C28.3843 31.3704 29.418 30.9422 30.1801 30.1801C30.9422 29.418 31.3704 28.3843 31.3704 27.3065C31.3704 25.0569 29.5562 23.2184 27.3065 23.2184C26.2223 23.2184 25.1825 23.6492 24.4158 24.4158C23.6492 25.1825 23.2184 26.2223 23.2184 27.3065C23.2184 29.5562 25.0569 31.3704 27.3065 31.3704ZM30.6689 55.415V35.1682H23.9683V55.415H30.6689Z" fill="white"/>
</svg>
