<svg width="108" height="108" viewBox="0 0 108 108" fill="none" xmlns="http://www.w3.org/2000/svg">
<path d="M36.8281 45.1988H70.3082C72.158 45.1988 73.6562 43.7006 73.6562 41.8508V38.5028C73.6562 36.653 72.158 35.1548 70.3082 35.1548H36.8281C34.9783 35.1548 33.4801 36.653 33.4801 38.5028V41.8508C33.4801 43.7006 34.9783 45.1988 36.8281 45.1988ZM33.4801 61.9388C33.4801 63.7886 34.9783 65.2868 36.8281 65.2868H70.3082C72.158 65.2868 73.6562 63.7886 73.6562 61.9388V58.5908C73.6562 56.7411 72.158 55.2428 70.3082 55.2428H36.8281C34.9783 55.2428 33.4801 56.7411 33.4801 58.5908V61.9388ZM53.5682 87.2854C50.1323 87.2854 46.6964 86.2266 43.7627 84.1068L0 52.4933V97.0929C0 102.64 4.4968 107.137 10.044 107.137H97.0923C102.64 107.137 107.136 102.64 107.136 97.0929V52.4933L63.3736 84.1068C60.4399 86.2245 57.0041 87.2854 53.5682 87.2854ZM103.288 34.098C101.436 32.6458 99.6807 31.2794 97.0923 29.325V20.0887C97.0923 14.5415 92.5955 10.0447 87.0483 10.0447H70.8209C70.1848 9.58432 69.5926 9.15327 68.9293 8.67199C65.4118 6.10449 58.4228 -0.0725921 53.5682 0.000645616C48.7135 -0.0725921 41.7267 6.10449 38.2071 8.67199C37.5437 9.15327 36.9516 9.58432 36.3154 10.0447H20.0881C14.5408 10.0447 10.044 14.5415 10.044 20.0887V29.325C7.4556 31.2773 5.69999 32.6458 3.84812 34.098C2.64944 35.0374 1.6801 36.2371 1.01343 37.6064C0.346755 38.9756 0.000206281 40.4785 0 42.0014L0 44.23L20.0881 58.7415V20.0887H87.0483V58.7415L107.136 44.23V42.0014C107.136 38.9171 105.718 36.0022 103.288 34.098Z" fill="#00B4D8"/>
</svg>
