<svg width="26" height="26" viewBox="0 0 26 26" fill="none" xmlns="http://www.w3.org/2000/svg">
<path d="M22.75 20.5833V18.8002C22.75 17.9143 22.2106 17.1176 21.388 16.7885L19.1844 15.9071C18.1381 15.4886 16.9457 15.9419 16.4418 16.9498L16.25 17.3333C16.25 17.3333 13.5417 16.7917 11.375 14.625C9.20833 12.4583 8.66667 9.75 8.66667 9.75L9.05019 9.55824C10.0581 9.05429 10.5114 7.8619 10.0929 6.81564L9.21146 4.61199C8.88242 3.78939 8.08572 3.25 7.19976 3.25H5.41667C4.22005 3.25 3.25 4.22005 3.25 5.41667C3.25 14.9896 11.0104 22.75 20.5833 22.75C21.78 22.75 22.75 21.78 22.75 20.5833Z" fill="white"/>
</svg>
