<svg width="140" height="100" viewBox="0 0 140 100" fill="none" xmlns="http://www.w3.org/2000/svg">
<rect width="140" height="100" rx="8" fill="#0060AF"/>
<path fill-rule="evenodd" clip-rule="evenodd" d="M28.7945 59.5826C28.7945 58.2405 28.81 54.6532 28.7749 54.2112C28.8055 48.8732 24.6883 45.1077 22.0872 45.4013C20.2874 45.5485 18.7786 46.2404 17.969 48.2306C17.2181 50.0854 17.8895 52.5525 20.3853 53.1314C23.0536 53.7532 24.6123 54.2704 25.74 55.0002C27.1219 55.8936 28.25 57.6006 28.2799 59.5848" fill="white"/>
<path fill-rule="evenodd" clip-rule="evenodd" d="M27.6792 59.5846C27.6879 57.8643 26.6693 56.3431 25.338 55.5255C24.1571 54.803 22.5717 54.3286 20.0141 53.7169C19.2236 53.5262 18.3966 53.1027 18.1406 52.563C17.4633 53.2063 17.3403 54.6525 17.4595 55.4979C17.5979 56.4757 18.8104 58.0877 20.636 58.1508C21.7509 58.193 23.1604 57.9247 23.8364 57.7893C25.0025 57.5519 26.8474 58.2404 27.1411 59.5825" fill="white"/>
<path fill-rule="evenodd" clip-rule="evenodd" d="M29.7375 37.0815C26.6418 37.0815 23.9683 39.0059 23.9776 42.3358C23.9873 45.1359 26.3761 46.6349 27.2288 47.7056C28.517 49.3191 29.2142 51.2289 29.2863 54.1511C29.343 56.4767 29.3401 58.7732 29.3527 59.5871H30.0357C30.0241 58.7356 29.9932 56.2976 30.0283 54.0791C30.0747 51.156 30.797 49.3191 32.0858 47.7056C32.9459 46.6349 35.3325 45.1359 35.3377 42.3358C35.3496 39.0059 32.677 37.0815 29.5845 37.0815" fill="white"/>
<path fill-rule="evenodd" clip-rule="evenodd" d="M30.5231 59.5826C30.5231 58.2405 30.507 54.6532 30.5414 54.2112C30.5112 48.8732 34.6258 45.1077 37.2291 45.4013C39.029 45.5485 40.5358 46.2404 41.3479 48.2306C42.0979 50.0854 41.423 52.5525 38.9304 53.1314C36.2601 53.7532 34.7037 54.2704 33.5731 55.0002C32.1928 55.8936 31.1436 57.6006 31.1114 59.5848" fill="white"/>
<path fill-rule="evenodd" clip-rule="evenodd" d="M31.6376 59.5846C31.628 57.8643 32.6463 56.3431 33.9737 55.5255C35.1597 54.803 36.7467 54.3286 39.302 53.7169C40.0943 53.5262 40.9203 53.1027 41.1718 52.563C41.8522 53.2063 41.9753 54.6525 41.8558 55.4979C41.7147 56.4757 40.5052 58.0877 38.6828 58.1508C37.5685 58.193 36.1513 57.9247 35.4782 57.7893C34.3166 57.5519 32.4666 58.2404 32.1716 59.5825" fill="white"/>
<path fill-rule="evenodd" clip-rule="evenodd" d="M32.5924 65.1382L32.1966 62.4136L33.1527 62.277C33.3853 62.2473 33.6686 62.2855 33.782 62.4228C33.9073 62.5663 33.9456 62.685 33.9697 62.8733C34.0061 63.1064 33.9346 63.3754 33.6564 63.5095V63.5177C33.9668 63.5177 34.1546 63.7281 34.2093 64.0833C34.2171 64.1586 34.2409 64.3395 34.2171 64.4907C34.1539 64.8504 33.9266 64.9664 33.5421 65.0171L32.5924 65.1382ZM33.2078 64.6507C33.3212 64.6352 33.4361 64.6294 33.526 64.5754C33.6638 64.4907 33.6513 64.3098 33.6319 64.175C33.5843 63.8796 33.5025 63.767 33.1698 63.8134L32.9605 63.8438L33.0932 64.6655L33.2078 64.6507ZM33.0078 63.3914C33.1344 63.3723 33.3057 63.3578 33.3772 63.2445C33.4149 63.1689 33.4625 63.1088 33.431 62.9406C33.392 62.7415 33.3221 62.6176 33.0532 62.6656L32.803 62.7036L32.9019 63.4018L33.0078 63.3914Z" fill="white"/>
<path fill-rule="evenodd" clip-rule="evenodd" d="M36.7342 63.5001C36.7416 63.5508 36.7503 63.6072 36.7535 63.6579C36.8308 64.1546 36.7342 64.5662 36.1417 64.6794C35.2654 64.8382 35.0976 64.3255 34.9437 63.6072L34.8616 63.2183C34.7408 62.5314 34.689 62.011 35.543 61.8505C36.0245 61.7679 36.3426 61.9485 36.475 62.4002C36.4956 62.4676 36.5214 62.5341 36.531 62.6021L36.0071 62.7041C35.9465 62.5341 35.8663 62.2308 35.6306 62.2563C35.2075 62.3046 35.3472 62.8006 35.3907 63.0083L35.5482 63.7541C35.5955 63.9797 35.6895 64.34 36.0557 64.2705C36.3529 64.2144 36.2231 63.7778 36.1967 63.5987" fill="white"/>
<path fill-rule="evenodd" clip-rule="evenodd" d="M37.575 64.3243L37.394 61.5047L38.0976 61.3022L39.5735 63.7545L39.0193 63.9108L38.6696 63.2876L38.0542 63.4619L38.1337 64.1704L37.575 64.3243ZM38.0026 63.0065L38.4474 62.8851L37.8567 61.7442L38.0026 63.0065Z" fill="white"/>
<path fill-rule="evenodd" clip-rule="evenodd" d="M20.1878 62.1927C20.4081 61.5282 20.6052 61.0385 21.446 61.2559C21.8959 61.3745 22.1748 61.5612 22.1616 62.0539C22.1593 62.1635 22.121 62.2755 22.0959 62.3836L21.5726 62.2476C21.6412 61.9753 21.6846 61.7595 21.3291 61.6563C20.9182 61.55 20.818 62.0199 20.7614 62.2227L20.5485 62.9616C20.4809 63.1811 20.3997 63.5439 20.7614 63.6377C21.0602 63.7133 21.2412 63.437 21.3494 63.0333L20.9836 62.9416L21.1101 62.5142L21.9709 62.7749L21.5623 64.1996L21.1662 64.0982L21.2554 63.797H21.2441C21.0615 64.0435 20.8393 64.0694 20.6445 64.0338C19.7837 63.8147 19.8735 63.2843 20.079 62.5758" fill="white"/>
<path fill-rule="evenodd" clip-rule="evenodd" d="M23.3916 63.3955L23.1323 64.5545L22.5488 64.4358L23.1706 61.7295L24.1654 61.9411C24.7476 62.0598 24.9235 62.3038 24.841 62.8072C24.794 63.0959 24.643 63.4067 24.2743 63.3815L24.2704 63.377C24.5821 63.4796 24.6085 63.628 24.5541 63.8839C24.5306 63.9932 24.3686 64.6544 24.4804 64.7613L24.4842 64.8426L23.8804 64.6939C23.8553 64.5108 23.941 64.1811 23.9748 63.9984C24.0086 63.8369 24.063 63.6092 23.8891 63.5239C23.7532 63.4553 23.7023 63.4586 23.5484 63.4255L23.3916 63.3955ZM23.4911 62.9763L23.8839 63.0761C24.1226 63.1089 24.2553 62.9923 24.3023 62.7203C24.3448 62.4711 24.2897 62.374 24.0756 62.3257L23.6543 62.245L23.4911 62.9763Z" fill="white"/>
<path fill-rule="evenodd" clip-rule="evenodd" d="M27.1345 62.3341L27.7116 62.3972L27.463 64.3C27.3422 64.9032 27.0949 65.1667 26.3909 65.0845C25.6747 64.9988 25.5047 64.6916 25.5478 64.0836L25.7984 62.1826L26.38 62.2452L26.1304 64.1036C26.1037 64.3055 26.0544 64.6045 26.435 64.6409C26.7729 64.6652 26.8495 64.4539 26.8878 64.1917" fill="white"/>
<path fill-rule="evenodd" clip-rule="evenodd" d="M28.3476 65.1884L28.5215 62.4678L29.63 62.513C30.1542 62.5376 30.2911 62.9407 30.275 63.3257C30.2595 63.5597 30.1823 63.8211 29.9658 63.9629C29.7884 64.0834 29.5601 64.1119 29.3488 64.1022L28.9875 64.0834L28.9154 65.2236L28.3476 65.1884ZM29.0036 63.6684L29.2973 63.6839C29.5359 63.6921 29.694 63.6031 29.7147 63.2728C29.7266 62.9559 29.599 62.9019 29.2899 62.8891L29.0574 62.8815L29.0036 63.6684Z" fill="white"/>
<path fill-rule="evenodd" clip-rule="evenodd" d="M106.548 39.7113L102.141 47.2514C100.478 45.9779 98.447 45.0411 95.8556 45.0411C89.7231 45.0411 87.2319 49.35 87.2319 52.3854C87.2319 54.6388 88.797 57.9629 94.2535 57.9629C96.5441 57.9629 99.7999 56.4612 100.737 55.7775L96.3789 64.5253C94.3015 64.9159 93.6188 65.1582 91.8605 65.2095C82.0938 65.4842 78.1476 59.8284 78.1502 54.0496C78.157 46.4096 85.3622 37.1185 97.3074 37.1185C98.039 37.1185 98.9343 37.3574 99.6998 37.6218L100.474 36.689" fill="white"/>
<path fill-rule="evenodd" clip-rule="evenodd" d="M124.731 36.9253L125.979 64.329H116.692L116.687 59.6294H110.354L108.27 64.329H98.1981L108.728 44.7605L106.354 44.7459L110.865 36.9253H124.731ZM116.626 45.3094L113.046 53.2803H116.734L116.626 45.3094Z" fill="white"/>
<path fill-rule="evenodd" clip-rule="evenodd" d="M72.2873 36.9253C76.8863 36.9496 79.4851 39.3029 79.4851 42.702C79.4851 45.8361 76.7443 48.6098 73.7355 50.0442C76.8332 51.1179 77.1011 53.7529 77.1011 55.6168C77.1011 60.1209 72.3073 64.329 66.0756 64.329H52.4848L57.7862 45.0331L55.6086 45.0213L60.06 36.9253C60.06 36.9253 68.5476 36.9011 72.2873 36.9253ZM67.7753 48.0361C68.7266 48.0361 70.4063 47.809 70.8263 46.0735C71.2865 44.1892 69.7101 44.1385 68.954 44.1385L66.2521 44.1276L65.3098 48.0361H67.7753ZM63.9554 52.8786L62.7113 57.3824H65.893C67.1445 57.3824 68.8503 56.7965 69.2683 55.3309C69.6811 53.8613 68.4886 52.8786 67.2417 52.8786H63.9554Z" fill="white"/>
<path fill-rule="evenodd" clip-rule="evenodd" d="M29.8598 67.6965C25.154 67.6965 20.3183 66.6039 15.4888 64.4431L15.3703 64.3882L15.3136 64.2743C13.1463 59.9618 11.9998 55.2452 11.9998 50.6303C11.9998 46.0221 13.0993 41.5071 15.2678 37.2003L15.3277 37.0859L15.4485 37.0288C19.9161 35.0337 24.7218 34.0234 29.7375 34.0234C34.4092 34.0234 39.3991 35.1482 44.1646 37.2823L44.2866 37.3336L44.3433 37.4502C46.5518 41.8422 47.7166 46.5579 47.7166 51.0966C47.7166 55.6171 46.5982 60.1363 44.3868 64.5257L44.3288 64.6407L44.2058 64.6942C39.8062 66.6574 34.8453 67.6965 29.8598 67.6965ZM15.9357 63.8518C20.6271 65.9324 25.3066 66.9828 29.8598 66.9828C34.6878 66.9828 39.489 65.988 43.7633 64.1022C45.8865 59.8489 46.9627 55.4714 46.9627 51.0966C46.9627 46.7036 45.8395 42.1346 43.7147 37.8715C39.09 35.8221 34.2601 34.7353 29.7375 34.7353C24.8818 34.7353 20.2275 35.7061 15.8952 37.6217C13.8155 41.7958 12.7569 46.1699 12.7569 50.6303C12.7569 55.0986 13.8567 59.6698 15.9357 63.8518Z" fill="white"/>
</svg>
