<svg width="140" height="100" viewBox="0 0 140 100" fill="none" xmlns="http://www.w3.org/2000/svg">
<rect width="140" height="100" rx="8" fill="white"/>
<path fill-rule="evenodd" clip-rule="evenodd" d="M22.7041 59.3805L27.4553 65.2642H15.6922L22.7041 59.3805ZM21.21 57.5631L12.0083 65.2822L12.0045 46.2979L21.21 57.5631ZM43.3502 38.447C43.3502 38.447 41.3301 37.4908 38.9834 37.6304C36.3005 37.7884 34.056 38.8173 32.7657 40.175C31.9537 41.0279 31.0562 42.0684 30.6053 43.1984C29.9515 44.8332 29.8119 46.9932 29.8119 46.9932C29.8119 46.9932 28.8735 46.1968 27.6979 43.8761C26.331 41.1769 25.9571 39.5419 25.7718 37.6765C25.607 36.0395 25.8658 34.4209 25.8658 34.4209H43.3502V38.447ZM43.3502 43.829V55.7992C43.3502 55.7992 42.2632 56.2167 41.3765 56.2167C40.4899 56.2167 38.98 56.0853 37.2264 55.1211C35.4855 54.1649 34.5219 53.0079 33.7749 51.9595C33.0173 50.8932 32.3918 49.415 32.2058 48.3497C32.0564 47.4975 31.8953 45.372 32.7657 43.6444C33.238 42.7068 34.5057 41.0998 36.9464 41.0085C38.9359 40.9321 40.0391 41.4551 41.0502 42.01C42.9744 43.0681 43.3502 43.829 43.3502 43.829ZM24.3117 54.9586L27.4655 52.3298C26.4604 51.0459 26.1948 50.5622 25.0712 48.9046C23.9209 47.2081 22.9573 45.3416 22.1333 43.1516C21.2413 40.7793 21.0259 39.4475 21.1244 37.6765C21.2478 35.4232 21.7601 34.4209 21.7601 34.4209H12L12.0045 39.6811C12.0045 39.6811 19.4756 49.0439 24.3117 54.9586ZM33.3229 65.2556H43.3502V57.9443C43.3502 57.9443 40.8631 59.0851 39.2464 59.1772C38.2839 59.2334 37.3497 59.2705 35.8425 58.8695C34.1669 58.4243 33.215 57.9903 31.6621 56.7094C30.4148 55.682 28.9886 54.1649 28.9886 54.1649L25.8164 56.8098C27.2882 58.61 28.3751 59.9205 28.7079 60.2732C30.1386 61.7851 30.7449 62.3407 31.7085 62.8795C32.6717 63.4194 35.89 63.3902 35.89 63.3902L33.3229 65.2556Z" fill="#E94E0F"/>
<path fill-rule="evenodd" clip-rule="evenodd" d="M119.186 58.7527C119.186 60.8712 119.472 64.3533 117.099 65.201V65.3421H126.11V65.201C123.739 64.3068 124.023 60.8712 124.023 58.7527V41.01C124.023 38.8926 123.739 35.4098 126.11 34.5157V34.3745H117.099V34.5157C119.518 35.4098 119.186 38.8455 119.186 41.01V58.7527ZM86.1463 41.01L102.413 61.483C104.499 64.1649 105.97 65.7188 109.337 66.8477V40.4454C109.337 37.8102 109.337 35.9272 111.804 34.5157V34.3745H103.456V34.5157C105.97 35.9272 105.922 37.8102 105.922 40.4454V58.2824L88.5655 36.539L87.9007 35.5977C87.5694 35.2215 87.38 34.9863 87.1902 34.4217V34.3745H80.2651V34.5157C82.7314 35.9272 82.7314 37.8102 82.7314 40.4454V59.2245C82.7314 61.8593 82.7314 63.7415 80.2187 65.201V65.3421H88.613V65.201C86.0991 63.7415 86.1463 61.8593 86.1463 59.2245V41.01ZM59.6309 46.8457V37.6215L62.8077 37.2913C65.6536 37.009 68.6881 38.7036 68.6881 41.9513C68.6881 45.8105 64.2776 46.8457 61.1959 46.8457H59.6309ZM59.6307 61.5769V49.9519L62.9497 49.764C67.1233 49.5284 71.581 51.5058 71.581 56.0707C71.581 60.5417 67.6459 62.3299 63.756 61.9536L59.6307 61.5769ZM54.7927 58.7059C54.7927 60.8712 55.0776 64.3068 52.7056 65.201V65.3421H60.5309C64.0876 65.3421 67.8353 65.4836 71.1543 63.8834C74.3318 62.3771 76.8457 59.2705 76.8457 55.6465C76.8457 51.0351 73.3829 48.2109 69.1147 47.316C71.8183 46.1399 73.8568 44.3517 73.8568 41.1983C73.8568 37.0097 70.2062 34.3745 63.9465 34.3745H52.7056V34.5157C55.1255 35.4098 54.7927 38.8455 54.7927 40.9628V58.7059Z" fill="#005B6A"/>
</svg>
