<svg width="140" height="100" viewBox="0 0 140 100" fill="none" xmlns="http://www.w3.org/2000/svg">
<rect width="140" height="100" rx="8" fill="#00529C"/>
<path fill-rule="evenodd" clip-rule="evenodd" d="M41.5026 43.3818H48.1752C50.8772 43.3818 52.8916 44.5774 52.8916 47.0942C52.8916 48.9395 51.9578 49.9672 50.3357 50.5116V50.5531C52.2691 50.9527 53.2667 52.0014 53.2667 53.7829C53.2667 57.2859 50.2104 58.0193 47.6127 58.0193H41.5026V43.3818ZM45.3674 49.1699H46.4493C47.7171 49.1699 49.0273 48.8552 49.0273 47.6169C49.0273 46.2765 47.7797 46.1495 46.4898 46.1495H45.3674V49.1699ZM45.3674 55.2516H46.5125C47.9246 55.2516 49.4 55.0416 49.4 53.5525C49.4 51.9599 47.8835 51.8118 46.553 51.8118H45.3674V55.2516Z" fill="white"/>
<path fill-rule="evenodd" clip-rule="evenodd" d="M58.3408 43.3818H63.08L68.6714 58.0193H64.4307L63.3507 54.8955H57.9049L56.761 58.0193H52.8329L58.3408 43.3818ZM60.7113 46.4023H60.6677L58.7982 52.1278H62.4353L60.7113 46.4023Z" fill="white"/>
<path fill-rule="evenodd" clip-rule="evenodd" d="M69.2095 43.3818H74.1353L79.0409 53.3227H79.0814L79.02 43.3818H82.5547V58.0193H77.7528L72.6796 48.0165H72.6397L72.7637 58.0193H69.2095V43.3818Z" fill="white"/>
<path fill-rule="evenodd" clip-rule="evenodd" d="M83.8668 43.3818H87.7323V49.3601H87.7741L92.1375 43.3818H96.7951L91.4315 50.1969L97.2107 58.0193H92.283L87.7741 51.372H87.7323V58.0193H83.8668V43.3818Z" fill="white"/>
<path fill-rule="evenodd" clip-rule="evenodd" d="M102.004 43.3818H108.676C111.378 43.3818 113.395 44.5774 113.395 47.0942C113.395 48.9395 112.461 49.9672 110.839 50.5116V50.5531C112.771 50.9527 113.769 52.0014 113.769 53.7829C113.769 57.2859 110.713 58.0193 108.116 58.0193H102.004V43.3818ZM105.87 49.1699H106.95C108.219 49.1699 109.527 48.8552 109.527 47.6169C109.527 46.2765 108.281 46.1495 106.993 46.1495H105.87V49.1699ZM105.87 55.2516H107.014C108.426 55.2516 109.903 55.0416 109.903 53.5525C109.903 51.9599 108.386 51.8118 107.055 51.8118H105.87V55.2516Z" fill="white"/>
<path fill-rule="evenodd" clip-rule="evenodd" d="M114.626 43.3818H121.527C124.104 43.3818 126.204 44.5557 126.204 47.0738C126.204 49.0238 125.289 50.324 123.419 50.7638V50.8052C124.664 51.1416 124.748 52.2523 125.476 54.035L126.89 58.0193H122.858L122.026 55.3786C121.236 52.8618 120.737 52.2312 119.302 52.2312H118.491V58.0193H114.626V43.3818ZM118.491 49.4635H119.511C120.758 49.4635 122.338 49.4208 122.338 47.7644C122.338 46.4023 120.985 46.1495 119.511 46.1495H118.491V49.4635Z" fill="white"/>
<mask id="mask0_30_918" style="mask-type:luminance" maskUnits="userSpaceOnUse" x="8" y="36" width="124" height="30">
<path fill-rule="evenodd" clip-rule="evenodd" d="M8 65.4115H131.82V36H8V65.4115Z" fill="white"/>
</mask>
<g mask="url(#mask0_30_918)">
<path fill-rule="evenodd" clip-rule="evenodd" d="M127.955 58.0193H131.82V43.3818H127.955V58.0193Z" fill="white"/>
<path fill-rule="evenodd" clip-rule="evenodd" d="M32.6803 36H12.4468C9.99084 36 7.99988 38.0585 7.99988 40.5983V40.6468V60.8145C7.99988 63.3294 9.95414 65.3738 12.3785 65.4115H32.6696C35.1261 65.4115 37.1177 63.353 37.1177 60.8145L37.1272 40.5983C37.1272 38.0585 35.1369 36 32.6803 36ZM14.8521 63.0549L13.7481 63.067C12.4119 63.067 11.3288 61.9596 11.3288 60.593L11.3225 60.3983V41.7281L11.3295 40.7228C11.3794 39.4002 12.3752 38.3355 13.6798 38.3355H15.9238C17.9571 38.3355 19.6065 40.1196 19.6065 42.2247C19.6065 43.2651 19.2022 44.2098 18.5474 44.8966L12.8219 50.7581L18.1881 56.2711C18.8802 56.9904 19.2984 57.9364 19.2984 58.9723C19.2984 61.2274 17.3074 63.0549 14.8521 63.0549ZM31.3491 63.0364L21.3444 63.0319C21.3444 63.0319 22.5015 60.5094 22.5015 58.9481C22.5015 57.0447 21.8701 55.3436 20.8825 54.2183L17.4605 50.6987L20.9534 47.0579C21.9928 46.0717 22.6837 44.3215 22.6837 42.3281C22.6837 40.7496 22.251 39.3511 21.5544 38.3355H23.9787C26.0127 38.3355 27.662 40.1196 27.662 42.2247C27.662 43.2651 27.2584 44.2098 26.6036 44.8966L20.9876 50.6968L32.6518 62.6974C32.2823 62.9323 31.816 63.0364 31.3491 63.0364ZM33.7924 59.2896L25.4332 50.6943L29.4145 46.6117C30.2256 45.5898 30.7393 44.0496 30.7393 42.3281C30.7393 40.7394 30.3002 39.307 29.5973 38.2909L31.3795 38.3445C32.7157 38.3445 33.7988 39.4538 33.7988 40.8198L33.7924 59.2896Z" fill="white"/>
</g>
</svg>
