<svg width="41" height="40" viewBox="0 0 41 40" fill="none" xmlns="http://www.w3.org/2000/svg">
<path d="M20.5 35C17.5333 35 14.6332 34.1203 12.1664 32.4721C9.69971 30.8238 7.77712 28.4811 6.64181 25.7403C5.50649 22.9994 5.20944 19.9834 5.78822 17.0737C6.367 14.1639 7.79561 11.4912 9.8934 9.3934C11.9912 7.29562 14.6639 5.86701 17.5736 5.28823C20.4834 4.70945 23.4994 5.0065 26.2403 6.14181C28.9811 7.27713 31.3238 9.19972 32.972 11.6665C34.6203 14.1332 35.5 17.0333 35.5 20C35.5 22.48 34.9 24.8183 33.8333 26.8783L35.5 35L27.3783 33.3333C25.3183 34.4 22.9783 35 20.5 35Z" stroke="#0096C7" stroke-width="3" stroke-linecap="round" stroke-linejoin="round"/>
</svg>
