<svg width="140" height="100" viewBox="0 0 140 100" fill="none" xmlns="http://www.w3.org/2000/svg">
<rect width="140" height="100" rx="8" fill="#108EE9"/>
<path fill-rule="evenodd" clip-rule="evenodd" d="M30.219 34H29.7523C25.8743 34.0817 22.0547 35.6333 19.2383 38.3027C15.9367 41.3593 14.042 45.8137 14 50.303V50.7207C14.0793 55.1167 15.9203 59.4683 19.1263 62.4923C21.966 65.2363 25.858 66.8347 29.8083 66.9H30.2657C35.6043 66.8393 40.7423 63.8503 43.519 59.3073C45.8943 55.5413 46.6247 50.8047 45.57 46.4857C44.6857 42.7593 42.455 39.3643 39.3657 37.0963C36.7407 35.1363 33.4927 34.0607 30.219 34ZM22.9693 47.3677C24.4767 47.8087 26.0843 47.5403 27.552 47.0667C28.3608 46.8 29.157 46.4953 29.9531 46.1905C31.2404 45.6977 32.5276 45.2049 33.8683 44.8733C35.6627 44.4533 37.6787 44.7917 39.116 45.9817C39.4004 46.2548 39.3997 46.6494 39.3991 47.0237V47.0237C39.399 47.1162 39.3988 47.2075 39.403 47.2953C39.387 48.4999 39.3927 49.7049 39.3984 50.9097V50.9098V50.9099V50.9099V50.91C39.4068 52.6854 39.4152 54.4607 39.354 56.2343C39.1374 56.1422 38.922 56.0444 38.7062 55.9465L38.7062 55.9464C37.8181 55.5432 36.9251 55.1378 35.9263 55.119C33.8435 55.0045 31.9181 55.6958 29.9891 56.3884C28.4194 56.952 26.8473 57.5164 25.186 57.6483C23.6787 57.7533 22.1037 57.3963 20.881 56.4887C20.6305 56.142 20.643 55.708 20.6552 55.2832C20.6602 55.1105 20.6652 54.9392 20.6523 54.776C20.6756 53.6979 20.6653 52.6177 20.655 51.5375C20.6384 49.7958 20.6218 48.0539 20.7457 46.32C21.0207 46.4425 21.2854 46.5883 21.5499 46.7341C22.0058 46.9853 22.4614 47.2363 22.9693 47.3677ZM54.6021 42.1941C53.7768 42.1993 52.9515 42.2045 52.1267 42.1947C52.1255 44.9643 52.1255 47.7346 52.1255 50.5051C52.1255 53.2757 52.1255 56.0465 52.1243 58.8173C53.0437 58.8185 53.9624 58.8185 54.8812 58.8185C55.7999 58.8185 56.7187 58.8185 57.638 58.8197C58.975 58.822 60.326 58.5653 61.5207 57.947C64.6987 56.3883 66.5397 52.641 65.9307 49.1667C65.4267 45.55 62.2673 42.477 58.597 42.232C57.2659 42.1773 55.9339 42.1857 54.6021 42.1941H54.6021ZM55.5996 53.8808C55.6065 51.1768 55.6134 48.4728 55.5894 45.7688C55.9458 45.7798 56.3044 45.7735 56.6632 45.7673H56.6632C57.4482 45.7536 58.2344 45.7399 59.003 45.9065C60.9187 46.3451 62.3957 48.1301 62.531 50.0808C62.734 52.0221 61.607 54.0265 59.815 54.8198C58.8437 55.2788 57.7761 55.2565 56.7196 55.2344C56.3421 55.2265 55.9661 55.2187 55.5964 55.2328L55.5996 53.8808ZM72.1047 48.917C72.2167 45.312 75.4623 42.0733 79.1117 42.197C82.6887 42.1597 85.8293 45.3283 85.9717 48.8633C86.0088 50.8942 86.0031 52.926 85.9974 54.9575V54.9603V54.9604V54.9605C85.9937 56.2447 85.9901 57.5289 85.9973 58.8127L85.9941 58.8127H85.9936H85.9932H85.9928C84.8346 58.815 83.6788 58.8173 82.523 58.8127C82.5172 58.2176 82.5177 57.6226 82.5183 57.0279V57.0257V57.0256V57.0255C82.5189 56.4316 82.5195 55.838 82.5137 55.245C81.1493 55.2519 79.7857 55.2507 78.4225 55.2494H78.4204H78.4202H78.4201C77.4667 55.2486 76.5135 55.2477 75.5603 55.2497C75.5569 55.6932 75.5586 56.1371 75.5603 56.5811V56.5811V56.5812V56.5813C75.5631 57.3307 75.566 58.0803 75.544 58.829C74.7741 58.8103 74.0052 58.8124 73.2367 58.8145H73.2366H73.2365H73.2363H73.2362H73.2361H73.236C72.8519 58.8155 72.4678 58.8166 72.0837 58.815C72.0879 57.6152 72.0847 56.4152 72.0816 55.2151V55.2151V55.215V55.215C72.076 53.115 72.0705 51.015 72.1047 48.917ZM76.4493 46.9617C75.5024 47.9849 75.53 49.3656 75.5564 50.6886V50.6887V50.6889V50.689C75.5631 51.0252 75.5698 51.3577 75.5603 51.6797C76.4858 51.6806 77.4116 51.68 78.3375 51.6795H78.3376H78.3377H78.3414C79.7323 51.6786 81.1234 51.6778 82.5137 51.682C82.505 51.3611 82.5125 51.0301 82.52 50.6955C82.549 49.4022 82.5793 48.0554 81.6877 47.034C80.444 45.4007 77.7373 45.3633 76.4493 46.9617ZM92.0757 48.9543C92.1783 45.781 94.6587 42.8363 97.8063 42.302C100.149 41.8517 102.66 42.7733 104.186 44.598C105.366 45.8977 105.968 47.657 105.968 49.4023C105.973 51.4944 105.971 53.5854 105.97 55.6768V55.677C105.969 56.7229 105.968 57.7688 105.968 58.815C105.575 58.8174 105.181 58.816 104.787 58.8146H104.787H104.787C104.027 58.8118 103.267 58.8091 102.508 58.8337C102.483 57.0563 102.487 55.2781 102.491 53.5001V53.4987C102.494 52.1308 102.497 50.7628 102.487 49.3953C102.506 48.126 101.827 46.8613 100.716 46.2313C99.5633 45.5407 98.0023 45.6433 96.9453 46.474C96.0307 47.1577 95.5197 48.2963 95.536 49.4303C95.5307 51.2159 95.5314 53.0006 95.5322 54.7855V54.7923C95.5328 56.133 95.5333 57.4738 95.5313 58.815C95.1079 58.8133 94.6845 58.8141 94.2611 58.8148C93.5202 58.8162 92.7793 58.8175 92.0383 58.8057C92.0631 57.2228 92.0585 55.6394 92.054 54.0559C92.0491 52.3552 92.0443 50.6544 92.0757 48.9543ZM113.16 45.417C114.501 43.3263 116.979 41.9777 119.483 42.2157C122.313 42.3907 124.824 44.5467 125.608 47.2417C125.897 48.1516 125.911 49.102 125.925 50.0517C125.933 50.5949 125.941 51.1378 126 51.6727V58.7963C125.111 58.8208 124.222 58.8178 123.333 58.8147C123.037 58.8137 122.74 58.8127 122.444 58.8127C122.443 58.4294 122.443 58.046 122.444 57.6624C122.445 56.8526 122.447 56.0424 122.428 55.2333C121.02 55.2546 119.612 55.2517 118.204 55.2488H118.203H118.202C117.297 55.247 116.392 55.2451 115.486 55.2497C115.485 55.8435 115.485 56.4373 115.485 57.0315C115.485 57.6256 115.485 58.22 115.484 58.815H112.007C112.006 57.2832 112.006 55.7519 112.006 54.221C112.006 52.69 112.006 51.1593 112.005 49.6287C111.988 48.154 112.341 46.656 113.16 45.417ZM116.356 46.985C115.428 48.0044 115.456 49.374 115.482 50.687C115.489 51.0239 115.496 51.3571 115.486 51.6797C117.032 51.6812 118.579 51.6807 120.124 51.6802H120.125C120.897 51.6799 121.67 51.6797 122.442 51.6797C122.431 51.3505 122.439 51.0108 122.446 50.6674C122.473 49.3799 122.502 48.042 121.609 47.027C120.353 45.3913 117.635 45.3703 116.356 46.985Z" fill="white"/>
</svg>
