<svg width="140" height="100" viewBox="0 0 140 100" fill="none" xmlns="http://www.w3.org/2000/svg">
<rect width="140" height="100" rx="8" fill="#FD6542"/>
<path fill-rule="evenodd" clip-rule="evenodd" d="M58.4258 20.0947C58.0519 20.3665 58.064 20.8233 58.0754 21.2533V21.2533V21.2534V21.2534C58.0788 21.3826 58.0822 21.5093 58.075 21.6279C58.0986 22.13 57.9846 22.6139 57.8705 23.0982C57.7753 23.5023 57.68 23.9066 57.6646 24.3218C57.6568 24.5625 57.6285 24.8014 57.6003 25.0401C57.5699 25.2971 57.5395 25.5539 57.5346 25.813C57.5209 26.6836 57.3666 27.5388 57.2125 28.3936C57.1386 28.8034 57.0647 29.213 57.0064 29.6243C56.996 30.059 56.9575 30.4912 56.9191 30.9235V30.9235V30.9235V30.9236C56.882 31.3398 56.845 31.7561 56.833 32.1746C56.775 32.5704 56.6974 32.9644 56.6197 33.3586L56.6197 33.3587C56.4582 34.1788 56.2965 34.9999 56.3102 35.8396C56.3315 36.712 56.1747 37.5652 56.0177 38.4191V38.4191V38.4192V38.4192L56.0177 38.4192C55.8952 39.0858 55.7726 39.7528 55.7346 40.4297C55.6618 40.8358 55.6496 41.2468 55.6374 41.6581V41.6581V41.6581V41.6581C55.6285 41.9588 55.6196 42.2597 55.587 42.5588C55.5369 42.8536 55.4806 43.1479 55.4243 43.4423C55.2624 44.2881 55.1002 45.135 55.0872 45.999C55.0603 46.8202 54.9165 47.6285 54.7728 48.4362L54.7728 48.4362C54.6989 48.8514 54.625 49.2664 54.5671 49.683C54.5657 50.0638 54.5282 50.4417 54.4906 50.8195V50.8195V50.8195V50.8195L54.4906 50.8196C54.4526 51.2009 54.4147 51.5821 54.414 51.9665C54.3964 52.5855 54.2703 53.1911 54.1442 53.7968C54.0093 54.445 53.8744 55.0931 53.8723 55.7575C53.8708 56.1539 53.8302 56.5476 53.7897 56.9414C53.7562 57.2661 53.7227 57.591 53.7111 57.9177C53.6693 58.1498 53.6252 58.3819 53.5811 58.6142C53.3861 59.6398 53.1904 60.6691 53.1937 61.7182C53.188 62.5004 53.0461 63.2673 52.9043 64.034C52.8123 64.5311 52.7204 65.0282 52.6655 65.5295C52.6705 65.9373 52.6271 66.344 52.5837 66.7504C52.5207 67.3414 52.4577 67.9318 52.5436 68.5241C52.6285 68.6948 52.8058 68.6963 52.9754 68.6978H52.9754H52.9754H52.9755C53.0278 68.6983 53.0794 68.6988 53.1274 68.7042C54.391 68.6967 55.6551 68.6974 56.9191 68.6981C57.709 68.6985 58.4989 68.699 59.2885 68.6974C59.7043 67.4202 59.8709 66.0739 59.9657 64.7399C59.9464 63.8447 60.1189 62.971 60.2911 62.0985C60.3602 61.7485 60.4292 61.3987 60.4858 61.0478C60.5265 59.8478 60.6077 58.6464 60.8217 57.464C61.0479 56.4171 61.2226 55.3498 61.1847 54.2757C61.1676 53.5675 61.3151 52.8789 61.4626 52.1903C61.6074 51.5147 61.7521 50.8391 61.7414 50.1448C61.7484 49.9421 61.7736 49.7408 61.7987 49.5395C61.8268 49.3145 61.855 49.0895 61.8578 48.8622C61.8618 48.1693 61.9974 47.4932 62.1331 46.8165L62.1331 46.8165L62.1331 46.8164L62.1331 46.8164L62.1331 46.8164C62.2322 46.3225 62.3313 45.8283 62.3793 45.3272C62.4348 44.069 62.5039 42.8013 62.7937 41.5715C62.9087 41.0661 62.9492 40.5513 62.9897 40.0364L62.9897 40.0363L62.9897 40.0363L62.9897 40.0362C63.0107 39.7688 63.0318 39.5013 63.0633 39.2351C63.0531 38.4292 63.2004 37.6403 63.3477 36.8514C63.495 36.0624 63.6423 35.2735 63.6321 34.4676C63.6231 33.5395 63.7941 32.6329 63.965 31.7261C64.1294 30.8543 64.2938 29.9822 64.2985 29.0906C64.283 28.1956 64.4465 27.3189 64.6098 26.4428L64.6098 26.4427C64.6901 26.0117 64.7704 25.5808 64.8294 25.148C64.8226 24.6718 64.8699 24.1999 64.9173 23.7279C64.9546 23.3555 64.992 22.983 65.0028 22.6085C65.0294 22.259 65.1131 21.9177 65.1966 21.577C65.3041 21.1387 65.4114 20.7011 65.3969 20.2478C65.0983 20.0508 64.7462 20.0581 64.4014 20.0652C64.3005 20.0673 64.2002 20.0693 64.1021 20.0663C63.3137 20.0781 62.5248 20.0735 61.736 20.0689C60.6319 20.0624 59.5279 20.056 58.4258 20.0947ZM75.5414 20.3385C74.8452 20.5864 74.1382 20.8572 73.5653 21.338C72.7919 21.9096 72.3545 22.7927 71.9508 23.6392C71.72 24.1505 71.7326 24.7142 71.7449 25.2666L71.7449 25.2671C71.7474 25.3788 71.7499 25.4901 71.7504 25.6003C71.7401 26.2308 72.0329 26.7993 72.3146 27.3462L72.3626 27.4396C73.0249 28.7317 74.3265 29.6432 75.7364 29.9304C76.9906 30.139 78.2041 29.5945 79.182 28.8536C79.9093 28.2861 80.4186 27.4884 80.7951 26.6568C80.9851 26.2684 80.9796 25.8388 80.9741 25.4139V25.4138V25.4136V25.4135C80.9724 25.2784 80.9706 25.1438 80.9752 25.0112C80.9708 24.891 80.9723 24.7698 80.9738 24.6484C80.9775 24.3592 80.9811 24.069 80.9048 23.7895C80.428 22.5435 79.5707 21.3936 78.349 20.8003L78.2339 20.7504C77.3901 20.3838 76.4571 19.9784 75.5414 20.3385ZM43.5545 22.3945C44.7233 21.6198 46.075 21.1972 47.4159 20.8274C49.3621 20.539 51.3531 20.5376 53.3034 20.8085C53.749 20.9101 54.3233 21.1092 54.4005 21.6292C54.3858 22.1609 54.2441 22.6705 54.1023 23.1808C53.9829 23.6104 53.8634 24.0404 53.8195 24.4843C53.7949 24.5867 53.7825 24.6997 53.7698 24.8145C53.7346 25.1358 53.6977 25.4719 53.3874 25.6315C52.548 26.1609 51.5876 26.1463 50.6272 26.1317C49.6833 26.1174 48.7393 26.1031 47.9102 26.6053C47.2398 26.9724 46.6005 27.4193 46.094 27.9963C45.3964 28.8252 44.9847 29.8423 44.6258 30.8527C44.489 31.2658 44.4037 31.6965 44.3969 32.1313C44.388 32.7812 44.2364 33.4103 44.0848 34.0389L44.0848 34.0389L44.0848 34.039C44.0048 34.3706 43.9249 34.7021 43.866 35.0365C43.7996 35.3263 44.0786 35.5593 44.3332 35.6229C44.6269 35.6479 44.9177 35.6116 45.2088 35.5752C45.4548 35.5445 45.7009 35.5138 45.949 35.52C46.8943 35.5237 47.8395 35.5229 48.785 35.5221C49.5587 35.5215 50.3325 35.5209 51.1066 35.5227C51.4384 35.5078 51.9436 35.6839 51.838 36.1064C51.7797 36.4883 51.6923 36.8663 51.6048 37.2443C51.4502 37.9123 51.2956 38.5807 51.3016 39.2717C51.3206 39.7877 51.2326 40.2983 51.0754 40.79C49.809 40.7997 48.5421 40.7983 47.2753 40.7969H47.2752H47.2752C46.243 40.7957 45.2108 40.7946 44.1788 40.7994C43.7048 40.7778 43.2998 41.1814 43.3188 41.6568C43.2229 42.2147 43.2072 42.7795 43.1916 43.3439C43.1724 44.0385 43.1531 44.7325 42.9842 45.4125C42.741 46.4826 42.6522 47.5743 42.5635 48.6656L42.5635 48.6657L42.5635 48.6657C42.5307 49.0689 42.4979 49.472 42.4574 49.8739C42.2393 51.0577 42.0321 52.2469 41.9657 53.4509C41.9684 54.5371 41.7897 55.6152 41.5445 56.6717C41.429 57.111 41.4166 57.5614 41.4042 58.0127C41.3938 58.392 41.3833 58.7719 41.3116 59.1462C41.2954 59.887 41.1595 60.6142 41.0237 61.3414C40.8749 62.1378 40.7261 62.9342 40.7346 63.7484C40.7556 64.6196 40.5926 65.4703 40.4293 66.3218C40.3299 66.8405 40.2304 67.3594 40.1725 67.8834C40.1205 68.3582 39.9795 68.8113 39.8385 69.2645C39.7116 69.6722 39.5846 70.0802 39.5224 70.5042C39.4573 70.9601 39.3243 71.3994 39.1913 71.8388C39.0449 72.3223 38.8985 72.806 38.8425 73.3119C38.554 74.459 37.996 75.6292 36.9978 76.3227C36.3477 76.6952 35.6122 76.9742 34.8524 76.9484C34.3722 76.944 33.8919 76.9444 33.4117 76.9448C33.0116 76.9451 32.6115 76.9455 32.2113 76.943C32.1856 76.2089 32.1748 75.4748 32.2235 74.7421C32.2789 74.272 32.3694 73.8061 32.4599 73.3403L32.4599 73.3402C32.5975 72.6318 32.7351 71.9235 32.749 71.2003C32.7581 70.958 32.786 70.7174 32.814 70.4767C32.849 70.1753 32.884 69.8739 32.8818 69.5696C32.8826 69.1217 32.9863 68.6893 33.09 68.2568C33.1588 67.9701 33.2275 67.6833 33.2664 67.3918C33.3477 65.5687 33.5332 63.7457 33.9233 61.9606C33.9495 61.3207 33.9996 60.6834 34.0496 60.046C34.0797 59.6637 34.1097 59.2813 34.1346 58.8983C34.189 58.4686 34.2749 58.0425 34.3608 57.6165C34.512 56.8661 34.6632 56.116 34.6425 55.3471C34.6383 54.548 34.7847 53.765 34.9312 52.9824C35.0207 52.5035 35.1103 52.0248 35.1653 51.5426C35.1667 51.1733 35.2051 50.8069 35.2434 50.4406C35.2799 50.0921 35.3164 49.7437 35.321 49.3931C35.3468 48.769 35.4718 48.1584 35.5968 47.5477C35.6622 47.2281 35.7276 46.9084 35.7788 46.5868C35.8601 46.1328 35.8618 45.6724 35.8635 45.212C35.8655 44.7054 35.8674 44.1987 35.9752 43.7006C36.0203 43.3696 36.0993 43.0441 36.1783 42.7188C36.2846 42.2811 36.3907 41.8438 36.414 41.394C36.4848 40.8884 35.9557 40.776 35.5445 40.6886L35.5444 40.6886C35.4755 40.674 35.4098 40.66 35.3508 40.645C35.0255 40.549 34.6832 40.5362 34.342 40.5233C33.865 40.5054 33.3903 40.4876 32.9671 40.2428C32.6244 40.0112 32.2425 39.7511 32.1111 39.338C32.0407 38.9589 32.0901 38.5813 32.1395 38.203C32.1719 37.9556 32.2043 37.708 32.2032 37.4595C32.2127 37.3046 32.2115 37.1468 32.2103 36.9885C32.2072 36.5791 32.204 36.1663 32.3847 35.7922C32.5757 35.5471 32.9156 35.5132 33.2041 35.5146C34.4854 35.5241 35.7653 35.5268 37.0452 35.5241C37.0721 35.2703 37.0807 35.0153 37.0892 34.7603V34.7603C37.1014 34.3987 37.1136 34.0374 37.1779 33.6807C37.2198 33.256 37.3193 32.8426 37.4186 32.4294C37.5249 31.9876 37.6312 31.546 37.6669 31.0911C37.721 30.4383 37.9486 29.8261 38.2005 29.2288C38.5757 28.0776 39.1906 27.0265 39.8095 25.9931C40.7779 24.5412 42.1052 23.3534 43.5545 22.3945ZM102.522 34.8797L102.522 34.8797C102.745 34.8344 102.968 34.7891 103.188 34.732C104.015 34.4915 104.885 34.5303 105.739 34.5684C105.843 34.573 105.946 34.5776 106.048 34.5817C106.175 34.6088 106.303 34.6351 106.431 34.6615C107.153 34.8104 107.881 34.9607 108.558 35.2575C110.488 36.0417 111.961 37.7117 112.785 39.5957C112.981 39.9908 113.117 40.408 113.254 40.8258L113.254 40.8261C113.316 41.0125 113.377 41.1989 113.443 41.3835C113.799 42.2683 113.869 43.2108 113.94 44.1534V44.1535V44.1535C113.977 44.6552 114.014 45.1568 114.095 45.6498C114.165 46.3083 114.15 46.9733 114.135 47.6355V47.6356L114.135 47.6371L114.135 47.6386C114.132 47.7695 114.129 47.9003 114.127 48.0309C114.037 48.6268 113.997 49.2313 113.956 49.8357V49.8358V49.8358C113.883 50.9308 113.809 52.0256 113.444 53.0693C113.347 53.3723 113.279 53.6833 113.211 53.9942C113.12 54.4085 113.029 54.8227 112.869 55.2173C112.764 55.4824 112.684 55.7563 112.605 56.0303L112.605 56.0305C112.515 56.3417 112.425 56.6528 112.297 56.951C111.16 59.6855 109.667 62.3076 107.621 64.4693C105.947 66.2246 103.947 67.7347 101.631 68.5243C100.648 68.9827 99.574 69.0594 98.5075 69.1356C98.1939 69.158 97.8808 69.1804 97.5709 69.2124C97.298 69.1792 97.0235 69.1547 96.7489 69.1302C96.1144 69.0736 95.4793 69.017 94.8621 68.8535C93.6783 68.4769 92.5271 67.9528 91.5452 67.1821C91.4606 67.1081 91.378 67.0314 91.2954 66.9546L91.2953 66.9545C91.006 66.6857 90.7167 66.4169 90.3438 66.2652C90.2501 66.612 90.2127 66.9673 90.1752 67.3227C90.1439 67.6196 90.1127 67.9166 90.0485 68.2088C89.7655 69.4426 89.6382 70.7076 89.6151 71.9713C89.5646 72.5877 89.4379 73.1931 89.3112 73.7982L89.3112 73.7982L89.3112 73.7983C89.2545 74.0694 89.1977 74.3404 89.1479 74.6124C89.107 75.0415 89.0804 75.4746 89.0538 75.9085L89.0538 75.9087L89.0537 75.9092C88.9788 77.1294 88.9035 78.3558 88.5099 79.5167C88.319 79.967 87.8888 79.9046 87.4842 79.8459C87.3607 79.828 87.2396 79.8104 87.1285 79.8079C86.2472 79.8012 85.3659 79.8027 84.4848 79.8042H84.4836H84.4835H84.4834C83.5667 79.8058 82.6501 79.8073 81.7339 79.7997C81.5814 79.1952 81.6507 78.5854 81.72 77.9757L81.72 77.9756C81.7547 77.67 81.7894 77.3645 81.7962 77.0598C81.8539 76.6163 81.934 76.1759 82.0141 75.7355C82.1407 75.0394 82.2673 74.3435 82.3054 73.6358C82.3203 72.5428 82.4436 71.4498 82.705 70.388C82.8333 69.8936 82.8531 69.3873 82.8729 68.8806C82.8886 68.4781 82.9044 68.0753 82.9745 67.6778C82.9866 66.9889 83.1221 66.3147 83.2574 65.6409L83.2575 65.6408C83.4103 64.88 83.5631 64.1197 83.5379 63.3397C83.5305 62.4527 83.6894 61.5825 83.8482 60.7126C83.9196 60.3219 83.9909 59.9313 84.0472 59.5392C84.0613 59.2447 84.0942 58.9517 84.127 58.6589L84.127 58.6587C84.1697 58.2783 84.2122 57.8983 84.2138 57.5158C84.1863 56.8262 84.3323 56.1583 84.4785 55.49L84.4785 55.4899C84.6059 54.9072 84.7334 54.3242 84.7461 53.7261C84.7554 52.4276 84.9806 51.1471 85.2049 49.8718L85.205 49.8717L85.2054 49.8694C85.2408 49.6677 85.2763 49.4662 85.3108 49.2647C85.4036 48.7823 85.4133 48.2939 85.4229 47.8056C85.4294 47.481 85.4358 47.1564 85.4666 46.8336C85.5227 46.4969 85.5908 46.1618 85.659 45.8267L85.659 45.8264L85.6591 45.8263L85.6591 45.8263C85.7981 45.1423 85.9372 44.458 85.9745 43.7591C85.9843 43.5173 86.0115 43.2768 86.0386 43.0364C86.0749 42.7137 86.1113 42.3912 86.1059 42.0661C86.0903 41.5718 86.2016 41.0945 86.313 40.6172C86.4237 40.1424 86.5345 39.6675 86.5203 39.1758C86.5402 38.9448 86.5583 38.7133 86.5765 38.4816L86.5765 38.4805L86.5766 38.4794C86.6656 37.3413 86.7548 36.1995 87.0607 35.095C87.8198 34.942 88.5928 34.9581 89.3657 34.9742H89.3658C89.7969 34.9831 90.228 34.9921 90.6567 34.9717C91.7361 34.8918 92.8684 35.6963 93.0038 36.7988C93.0634 37.6602 93.0323 38.527 92.9023 39.3803C92.9064 39.8051 92.8644 40.2268 92.8224 40.6483V40.6483V40.6484C92.7679 41.1957 92.7134 41.7425 92.7601 42.295C92.9307 42.2869 93.1041 42.2828 93.2774 42.2814C93.6526 41.3713 94.3041 40.6155 94.965 39.9004C95.1718 39.6919 95.3765 39.4811 95.5814 39.2703L95.5821 39.2695L95.5822 39.2694C96.1567 38.6781 96.7317 38.0863 97.3515 37.5424C98.5068 36.5483 99.8571 35.8033 101.263 35.2237C101.666 35.0536 102.094 34.9667 102.522 34.8797ZM104.163 40.8729C103.254 40.3338 102.133 40.2878 101.125 40.5329C99.5578 41.0232 98.2251 42.0566 97.1117 43.2404C95.5244 45.0458 94.2526 47.1167 93.2598 49.3013C92.156 51.4643 91.5221 53.8751 91.5208 56.3076C91.4896 57.0716 91.3389 57.8207 91.1883 58.5697L91.1882 58.5698C91.0507 59.2537 90.9131 59.9374 90.8666 60.6322C91.1716 61.5642 92.0559 62.1179 92.8497 62.6149L92.9321 62.6665L93.0997 62.7365L93.0997 62.7365C94.0028 63.1141 94.929 63.5013 95.9212 63.5307C95.9955 63.5318 96.0701 63.5332 96.145 63.5348L96.2306 63.5365C97.1278 63.5554 98.0541 63.5748 98.8847 63.1948C100.794 62.4837 102.395 61.0981 103.498 59.3984C104.507 58.0474 105.143 56.4755 105.77 54.9258L105.774 54.9139C106.209 53.6577 106.436 52.3546 106.664 51.0508L106.664 51.0508L106.664 51.0507L106.724 50.7072C107.005 49.6543 106.988 48.5704 106.972 47.4894V47.4893C106.966 47.1255 106.961 46.762 106.966 46.4002C106.912 45.7458 106.75 45.1074 106.589 44.4701L106.589 44.47L106.589 44.4699C106.511 44.1628 106.433 43.856 106.368 43.5478C105.942 42.4629 105.264 41.3686 104.163 40.8729ZM71.6661 36.4607C71.7238 36.0027 71.7815 35.5446 71.8804 35.0934C72.4442 35.0927 73.0081 35.0912 73.572 35.0897C75.3666 35.0849 77.1619 35.0802 78.9572 35.1028C78.9548 35.5948 78.8644 36.0758 78.7739 36.5571C78.7117 36.8881 78.6495 37.2193 78.6159 37.5543C78.5321 37.9723 78.5263 38.3962 78.5205 38.8201C78.5148 39.2326 78.5091 39.645 78.4317 40.0518C78.3865 40.4463 78.3034 40.8355 78.2203 41.2244C78.0941 41.8157 77.9679 42.4066 77.9752 43.0152C77.9714 43.2524 77.9422 43.4871 77.913 43.7218C77.8804 43.9845 77.8478 44.2471 77.8506 44.5132C77.856 45.192 77.7159 45.8537 77.5759 46.5154C77.4318 47.1963 77.2877 47.8771 77.3021 48.5764C77.3106 48.8899 77.2745 49.2003 77.2384 49.5109C77.2116 49.7411 77.1848 49.9713 77.1761 50.2031C77.1677 50.8413 77.0361 51.4648 76.9045 52.0885C76.7621 52.7633 76.6196 53.4382 76.633 54.1322C76.641 55.1146 76.469 56.0793 76.2972 57.0432C76.2357 57.3883 76.1742 57.7333 76.121 58.0789C76.1016 58.5848 76.0558 59.0883 76.01 59.592C75.9794 59.9284 75.9488 60.2648 75.926 60.6022C75.8685 61.0261 75.7936 61.4484 75.7187 61.8709C75.5607 62.7619 75.4027 63.6534 75.4073 64.5611C75.41 65.2877 75.2767 65.9994 75.1434 66.7112C75.0767 67.0674 75.01 67.4236 74.9603 67.7818C74.9469 67.8361 74.9348 67.8926 74.9226 67.9498C74.8633 68.2268 74.8 68.5229 74.5554 68.6879C73.5422 68.7045 72.5287 68.7015 71.5153 68.6986C70.6211 68.696 69.7269 68.6934 68.833 68.7042C68.7601 68.6978 68.6827 68.6989 68.6045 68.7001C68.3675 68.7035 68.1227 68.707 67.9689 68.5024C67.9021 67.9844 67.9606 67.4707 68.0191 66.9564C68.0639 66.5631 68.1087 66.1695 68.0976 65.7733C68.0755 64.979 68.2245 64.203 68.3736 63.4269C68.5077 62.7288 68.6419 62.0306 68.6515 61.3186C68.6649 61.1292 68.6858 60.9404 68.7067 60.7516C68.741 60.4423 68.7753 60.1332 68.7761 59.822C68.7849 59.3413 68.8899 58.8742 68.9948 58.4072C69.0522 58.1518 69.1096 57.8963 69.1513 57.6387L69.1557 57.5749C69.2816 55.7716 69.4079 53.961 69.8028 52.1913C69.8258 51.8938 69.8507 51.5965 69.8757 51.2991C69.9361 50.581 69.9964 49.8628 70.0289 49.1426C70.0833 48.8096 70.1493 48.4784 70.2152 48.1472C70.3397 47.5219 70.4642 46.8965 70.5111 46.259C70.5558 44.9927 70.6384 43.7195 70.9391 42.4843C71.0408 42.0435 71.0709 41.5934 71.1011 41.143C71.1227 40.8199 71.1443 40.4966 71.1924 40.1764C71.1899 39.275 71.3517 38.3887 71.5131 37.5046C71.5263 37.4322 71.5395 37.3598 71.5526 37.2875C71.5965 37.0129 71.6313 36.7368 71.6661 36.4607Z" fill="white"/>
</svg>
