<svg width="25" height="25" viewBox="0 0 25 25" fill="none" xmlns="http://www.w3.org/2000/svg">
<path d="M23.4388 12.7429C23.4388 11.8436 23.3644 11.1874 23.2032 10.5068H12.7246V14.5658H18.8753C18.7513 15.5745 18.0817 17.0936 16.5936 18.1144L16.5727 18.2503L19.8859 20.7656L20.1154 20.7881C22.2235 18.8801 23.4388 16.0728 23.4388 12.7429" fill="#4285F4"/>
<path d="M12.7239 23.4375C15.7372 23.4375 18.2669 22.4652 20.1147 20.7882L16.5929 18.1144C15.6504 18.7586 14.3855 19.2082 12.7239 19.2082C9.7725 19.2082 7.26757 17.3003 6.37463 14.6631L6.24374 14.674L2.79868 17.2869L2.75363 17.4096C4.58892 20.9825 8.35876 23.4375 12.7239 23.4375Z" fill="#34A853"/>
<path d="M6.37528 14.6633C6.13967 13.9827 6.00331 13.2535 6.00331 12.5001C6.00331 11.7466 6.13967 11.0174 6.36288 10.3369L6.35664 10.1919L2.8684 7.53711L2.75427 7.59031C1.99786 9.07297 1.56382 10.7379 1.56382 12.5001C1.56382 14.2622 1.99786 15.9271 2.75427 17.4098L6.37528 14.6633" fill="#FBBC05"/>
<path d="M12.7239 5.79164C14.8196 5.79164 16.2333 6.67879 17.0394 7.42016L20.1892 4.40625C18.2547 2.6441 15.7373 1.5625 12.7239 1.5625C8.35879 1.5625 4.58893 4.01734 2.75363 7.59023L6.36225 10.3368C7.26759 7.69965 9.77254 5.79164 12.7239 5.79164" fill="#EB4335"/>
</svg>
