<svg width="79" height="79" viewBox="0 0 79 79" fill="none" xmlns="http://www.w3.org/2000/svg">
<rect x="0.604743" y="0.988044" width="77.4071" height="77.4071" rx="38.7036" stroke="white" stroke-width="1.20949"/>
<path d="M41.5464 17.9216C43.9955 17.9282 45.2385 17.9412 46.3118 17.9717L46.7341 17.9869C47.2218 18.0044 47.7029 18.0261 48.2841 18.0522C50.6004 18.1611 52.1809 18.5268 53.5676 19.0645C55.0044 19.6175 56.2148 20.3664 57.4252 21.5746C58.5326 22.6625 59.3892 23.979 59.9352 25.4322C60.4729 26.8189 60.8387 28.3994 60.9475 30.7178C60.9736 31.2969 60.9954 31.778 61.0128 32.2678L61.0259 32.6902C61.0585 33.7612 61.0716 35.0043 61.076 37.4534L61.0781 39.0774V41.9292C61.0834 43.5171 61.0667 45.105 61.0281 46.6924L61.015 47.1147C60.9976 47.6046 60.9758 48.0857 60.9497 48.6647C60.8409 50.9832 60.4708 52.5615 59.9352 53.9504C59.3892 55.4036 58.5326 56.7201 57.4252 57.808C56.3373 58.9154 55.0208 59.772 53.5676 60.318C52.1809 60.8557 50.6004 61.2215 48.2841 61.3303L46.7341 61.3956L46.3118 61.4087C45.2385 61.4392 43.9955 61.4544 41.5464 61.4588L39.9224 61.4609H37.0727C35.4841 61.4665 33.8955 61.4498 32.3074 61.4109L31.885 61.3978C31.3682 61.3782 30.8516 61.3557 30.335 61.3303C28.0187 61.2215 26.4383 60.8557 25.0494 60.318C23.597 59.7717 22.2812 58.9151 21.194 57.808C20.0858 56.7203 19.2284 55.4038 18.6817 53.9504C18.144 52.5637 17.7783 50.9832 17.6695 48.6647L17.6041 47.1147L17.5933 46.6924C17.5531 45.105 17.535 43.5171 17.5388 41.9292V37.4534C17.5328 35.8655 17.5488 34.2776 17.5867 32.6902L17.602 32.2678C17.6194 31.778 17.6412 31.2969 17.6673 30.7178C17.7761 28.3994 18.1419 26.8211 18.6796 25.4322C19.2275 23.9784 20.0864 22.6618 21.1961 21.5746C22.2828 20.4677 23.5977 19.6111 25.0494 19.0645C26.4383 18.5268 28.0166 18.1611 30.335 18.0522C30.9141 18.0261 31.3974 18.0044 31.885 17.9869L32.3074 17.9739C33.8948 17.9352 35.4827 17.9185 37.0706 17.9238L41.5464 17.9216ZM39.3085 28.8065C36.4217 28.8065 33.6531 29.9532 31.6118 31.9946C29.5705 34.0359 28.4237 36.8044 28.4237 39.6913C28.4237 42.5781 29.5705 45.3467 31.6118 47.388C33.6531 49.4293 36.4217 50.5761 39.3085 50.5761C42.1953 50.5761 44.9639 49.4293 47.0052 47.388C49.0465 45.3467 50.1933 42.5781 50.1933 39.6913C50.1933 36.8044 49.0465 34.0359 47.0052 31.9946C44.9639 29.9532 42.1953 28.8065 39.3085 28.8065ZM39.3085 33.1604C40.1661 33.1602 41.0154 33.329 41.8078 33.6571C42.6003 33.9852 43.3203 34.4661 43.9268 35.0725C44.5334 35.6788 45.0146 36.3987 45.3429 37.191C45.6713 37.9833 45.8403 38.8325 45.8405 39.6902C45.8406 40.5478 45.6718 41.3971 45.3438 42.1895C45.0157 42.982 44.5347 43.702 43.9284 44.3086C43.322 44.9151 42.6022 45.3963 41.8098 45.7246C41.0175 46.053 40.1683 46.222 39.3107 46.2222C37.5786 46.2222 35.9174 45.5341 34.6926 44.3093C33.4678 43.0845 32.7798 41.4234 32.7798 39.6913C32.7798 37.9592 33.4678 36.298 34.6926 35.0732C35.9174 33.8485 37.5786 33.1604 39.3107 33.1604M50.7397 25.541C50.018 25.541 49.3259 25.8277 48.8155 26.338C48.3052 26.8484 48.0185 27.5405 48.0185 28.2622C48.0185 28.9839 48.3052 29.6761 48.8155 30.1864C49.3259 30.6967 50.018 30.9834 50.7397 30.9834C51.4614 30.9834 52.1536 30.6967 52.6639 30.1864C53.1742 29.6761 53.4609 28.9839 53.4609 28.2622C53.4609 27.5405 53.1742 26.8484 52.6639 26.338C52.1536 25.8277 51.4614 25.541 50.7397 25.541Z" fill="white"/>
</svg>
