<svg width="140" height="100" viewBox="0 0 140 100" fill="none" xmlns="http://www.w3.org/2000/svg">
<rect width="140" height="100" rx="8" fill="#003D79"/>
<path fill-rule="evenodd" clip-rule="evenodd" d="M10.1263 52.9626C10.1263 51.1693 10.0947 49.6643 10 48.3223H13.2867L13.4408 50.6278H13.5331C14.278 49.4095 15.6403 47.9688 18.1815 47.9688C20.1649 47.9688 21.7142 49.1238 22.3638 50.8516H22.4276C22.9553 49.9875 23.5729 49.3479 24.2851 48.898C25.1225 48.2907 26.0835 47.9688 27.3229 47.9688C29.8322 47.9688 32.3715 49.7288 32.3715 54.7227V63.9078H28.6537V55.2997C28.6537 52.7076 27.7875 51.1693 25.9603 51.1693C24.6567 51.1693 23.6952 52.1312 23.2951 53.252C23.2009 53.6349 23.1081 54.1154 23.1081 54.5603V63.9078H19.3891V54.8822C19.3891 52.7076 18.5538 51.1693 16.7873 51.1693C15.3618 51.1693 14.4024 52.3233 14.0607 53.4092C13.9047 53.7957 13.8422 54.2426 13.8422 54.6898V63.9078H10.1263V52.9626Z" fill="white"/>
<path fill-rule="evenodd" clip-rule="evenodd" d="M46.8566 60.1635C46.8566 61.571 46.9185 62.9449 47.0736 63.9078H43.6331L43.3861 62.18H43.292C42.3629 63.3973 40.7827 64.26 38.8308 64.26C35.7936 64.26 34.0902 61.9895 34.0902 59.6197C34.0902 55.6817 37.4663 53.6992 43.0441 53.7308V53.4738C43.0441 52.4492 42.6408 50.754 39.9765 50.754C38.4885 50.754 36.9386 51.2345 35.9167 51.9055L35.1721 49.3472C36.2897 48.6417 38.2435 47.9688 40.6274 47.9688C45.4631 47.9688 46.8566 51.1393 46.8566 54.5303V60.1635ZM43.1369 56.2914C40.4417 56.2268 37.8705 56.8348 37.8705 59.2035C37.8705 60.7382 38.8308 61.4438 40.0397 61.4438C41.5561 61.4438 42.6734 60.4192 43.0132 59.2994C43.1054 59.0114 43.1369 58.6901 43.1369 58.435V56.2914Z" fill="white"/>
<path fill-rule="evenodd" clip-rule="evenodd" d="M49.4916 52.9626C49.4916 51.1693 49.4575 49.6643 49.3672 48.3223H52.7108L52.8977 50.6585H52.9893C53.6408 49.4438 55.2829 47.9688 57.7921 47.9688C60.4268 47.9688 63.1533 49.7288 63.1533 54.6588V63.9078H59.3427V55.108C59.3427 52.8661 58.5371 51.1693 56.4608 51.1693C54.9425 51.1693 53.8893 52.2897 53.4854 53.4744C53.3635 53.8274 53.3313 54.3085 53.3313 54.7534V63.9078H49.4916V52.9626Z" fill="white"/>
<path fill-rule="evenodd" clip-rule="evenodd" d="M79.6769 42.0596V59.5219C79.6769 61.1218 79.7378 62.8532 79.8 63.9081H76.3914L76.2389 61.4441H76.1757C75.2767 63.1732 73.4457 64.2603 71.2481 64.2603C67.6554 64.2603 64.8038 61.0924 64.8038 56.2917C64.7722 51.0743 67.9327 47.9691 71.5576 47.9691C73.633 47.9691 75.1216 48.8664 75.8021 50.0195H75.865V42.0596H79.6769ZM75.865 54.817C75.865 54.5003 75.8331 54.1144 75.7734 53.7954C75.432 52.259 74.2229 51.0101 72.4876 51.0101C70.0399 51.0101 68.6763 53.2516 68.6763 56.1641C68.6763 59.0117 70.0399 61.0924 72.4567 61.0924C74.0053 61.0924 75.3695 60.0046 75.7409 58.3088C75.8331 57.9552 75.865 57.5716 75.865 57.1541V54.817Z" fill="white"/>
<path fill-rule="evenodd" clip-rule="evenodd" d="M82.3696 63.9077H86.2156V48.3232H82.3696V63.9077Z" fill="white"/>
<path fill-rule="evenodd" clip-rule="evenodd" d="M88.9091 53.3462C88.9091 51.2348 88.8769 49.7285 88.7844 48.3216H92.1005L92.2217 51.2971H92.3503C93.0927 49.0888 94.8592 48.3216 96.4697 48.3216C96.8408 48.3216 97.0574 48.2561 97.3682 48.3216V51.7792C97.0574 51.7152 96.7173 51.6513 96.2525 51.6513C94.4247 51.6513 93.1843 52.8663 92.8438 54.6255C92.7835 54.9777 92.721 55.3956 92.721 55.8457V63.908H88.9091V53.3462Z" fill="white"/>
<path fill-rule="evenodd" clip-rule="evenodd" d="M99.1343 63.9077H102.975V48.3232H99.1343V63.9077Z" fill="white"/>
<path fill-rule="evenodd" clip-rule="evenodd" d="M98.2259 29.4793C95.9191 30.8591 90.478 34.0824 88.4469 35.2828C87.209 35.9342 84.3419 36.2186 82.7203 33.9601C82.6913 33.9193 80.5635 31.1732 80.4767 31.0698C80.4157 30.9967 79.0401 28.8892 75.9751 28.8233C75.5222 28.8122 73.2707 28.7999 71.0737 30.0896C68.1536 31.8128 61.3622 35.8233 61.3622 35.8233C61.3603 35.8233 61.3603 35.8268 61.3569 35.8268C58.5653 37.4767 56.3901 38.7612 56.3901 38.7612L58.96 42.0214C60.1622 43.5633 62.8733 44.7561 65.2243 43.362C65.2243 43.362 73.9114 38.1659 73.9433 38.1509C77.7002 36.0226 80.5992 36.0226 82.5233 36.8145C84.2503 37.5683 85.7529 39.4465 85.7529 39.4465C85.7529 39.4465 87.7165 41.9601 88.0629 42.3998C89.1801 43.8203 91.0294 43.2622 91.0294 43.2622C91.0294 43.2622 91.7147 43.182 92.7476 42.5485C92.7476 42.5485 101.162 37.509 101.168 37.5073C103.839 35.8882 106.29 35.5858 107.542 35.7049C111.465 36.0731 112.684 38.9037 114.385 40.8785C115.386 42.04 116.29 42.6996 117.672 42.6663C118.58 42.6464 119.606 42.0775 119.758 41.9748L129.834 35.9684C129.834 35.9684 128.8 34.36 126.683 31.8575C124.788 29.6248 122.775 30.635 121.17 31.456C120.496 31.8004 118.053 33.479 115.633 34.65C113.908 35.484 111.431 35.2332 110.073 33.5005C109.992 33.3951 107.796 30.6487 107.565 30.3107C106.679 29.1639 104.949 28.1367 102.733 28.1367C101.385 28.1367 99.8554 28.5164 98.2259 29.4793Z" fill="url(#paint0_linear_30_784)"/>
<defs>
<linearGradient id="paint0_linear_30_784" x1="56.3901" y1="43.9794" x2="129.834" y2="43.9794" gradientUnits="userSpaceOnUse">
<stop stop-color="#FFCA06"/>
<stop offset="0.330844" stop-color="#FBAA18"/>
<stop offset="0.694742" stop-color="#FFC907"/>
<stop offset="1" stop-color="#FAA619"/>
</linearGradient>
</defs>
</svg>
