<svg width="140" height="100" viewBox="0 0 140 100" fill="none" xmlns="http://www.w3.org/2000/svg">
<rect width="140" height="100" rx="8" fill="#4C3494"/>
<path fill-rule="evenodd" clip-rule="evenodd" d="M114.37 37.9202C111.081 35.0157 106.559 33.6583 102.209 34.0732C101.122 34.1724 100.043 34.3658 98.9969 34.6754C95.1634 35.7782 91.8011 38.4049 89.7937 41.8492C87.0948 46.3915 86.7717 52.2213 88.8549 57.0647C90.4021 60.7134 93.3592 63.7415 96.9847 65.3474C101.102 67.1711 105.975 67.2262 110.129 65.4869C112.247 64.5959 114.167 63.2348 115.707 61.5298C118.518 58.4588 120.014 54.2678 119.919 50.1185C119.894 45.5163 117.875 40.9288 114.37 37.9202ZM95.5355 43.6815C97.0814 41.3768 99.631 39.7697 102.391 39.427C104.58 39.1295 106.875 39.5653 108.77 40.7121C110.592 41.7929 112.015 43.4882 112.866 45.4208C114.547 49.2764 114.17 54.0549 111.632 57.4551C110.429 59.0659 108.74 60.3217 106.822 60.941C104.413 61.7256 101.701 61.5567 99.4192 60.4514C97.6199 59.5861 96.1157 58.1516 95.1181 56.4257C92.888 52.5506 93.0165 47.3927 95.5355 43.6815ZM43.686 35.7709C40.7179 34.2323 37.2638 33.7183 33.9614 34.1565C30.7778 34.5665 27.7179 35.9472 25.3433 38.1136C22.9076 40.2923 21.1977 43.2483 20.4584 46.427C19.5661 50.2005 19.9774 54.2874 21.6848 57.777C23.2527 61.0365 25.9774 63.7256 29.2613 65.2446C32.5135 66.7574 36.2625 67.1197 39.7632 66.3841C43.1267 65.684 46.2332 63.8382 48.4718 61.2336C50.6065 58.7733 51.9357 55.6485 52.3091 52.4184C52.6701 49.4061 52.2234 46.296 50.9957 43.5188C49.5404 40.203 46.9198 37.4061 43.686 35.7709ZM30.483 41.1657C31.7926 40.2195 33.3459 39.6247 34.9456 39.4191C36.8612 39.1718 38.8551 39.4754 40.587 40.3407C42.6262 41.3358 44.2626 43.0776 45.2259 45.1241C46.3202 47.4056 46.6176 50.0359 46.2051 52.5231C45.8245 54.7924 44.7877 56.9821 43.1305 58.5978C41.7057 60.0359 39.811 60.9943 37.8122 61.304C35.3642 61.6896 32.7657 61.1596 30.7143 59.7544C28.5956 58.3407 27.1084 56.0849 26.4658 53.6357C25.8318 51.2171 25.9114 48.6027 26.74 46.2404C27.445 44.2281 28.74 42.4068 30.483 41.1657ZM53.7864 34.8872L53.7852 34.8872C53.7844 36.0556 53.7846 37.2246 53.7849 38.3938C53.785 38.9785 53.7852 39.5632 53.7852 40.1479C54.5783 40.1497 55.3707 40.1495 56.1635 40.1493C56.4278 40.1492 56.6921 40.1491 56.9565 40.1491C58.9179 44.6612 60.8769 49.1745 62.8357 53.6876C64.258 56.9645 65.6803 60.2414 67.1034 63.5175C67.7656 65.0377 69.1573 66.2238 70.7766 66.5995C71.3658 66.7536 71.9734 66.7474 72.579 66.7412C72.7673 66.7393 72.9553 66.7374 73.1426 66.7403C75.0008 62.3633 76.8652 57.9888 78.7295 53.6145C80.9519 48.3998 83.1743 43.1853 85.3862 37.9667C85.4426 37.3318 85.4339 36.6907 85.4253 36.0497C85.4201 35.6613 85.4149 35.2729 85.4241 34.886H75.145V34.8872C75.1438 36.642 75.1426 38.3955 75.145 40.1491C75.5925 40.1496 76.04 40.1495 76.4874 40.1493C77.084 40.1491 77.6806 40.1489 78.2772 40.1503C77.4589 42.155 76.6426 44.1606 75.8264 46.1661C74.2434 50.0553 72.6604 53.9444 71.063 57.8272C69.8193 54.882 68.5758 51.9368 67.3323 48.9917C66.088 46.0446 64.8437 43.0974 63.5991 40.1503C64.1254 40.1485 64.652 40.1488 65.1788 40.1491C65.7056 40.1494 66.2325 40.1497 66.7595 40.1479V34.8872C62.4355 34.8847 58.1116 34.886 53.7864 34.8872Z" fill="white"/>
</svg>
