<svg width="57" height="56" viewBox="0 0 57 56" fill="none" xmlns="http://www.w3.org/2000/svg">
<circle cx="28.3008" cy="28" r="28" fill="#23A26D" fill-opacity="0.12"/>
<path d="M27.8021 14.6665C20.4554 14.6665 14.4688 20.6532 14.4688 27.9998C14.4688 35.3465 20.4554 41.3332 27.8021 41.3332C35.1487 41.3332 41.1354 35.3465 41.1354 27.9998C41.1354 20.6532 35.1487 14.6665 27.8021 14.6665ZM34.1754 24.9332L26.6154 32.4932C26.4287 32.6798 26.1754 32.7865 25.9087 32.7865C25.6421 32.7865 25.3888 32.6798 25.2021 32.4932L21.4287 28.7198C21.0421 28.3332 21.0421 27.6932 21.4287 27.3065C21.8154 26.9198 22.4554 26.9198 22.8421 27.3065L25.9087 30.3732L32.7621 23.5198C33.1487 23.1332 33.7887 23.1332 34.1754 23.5198C34.5621 23.9065 34.5621 24.5332 34.1754 24.9332Z" fill="#23A26D"/>
</svg>
