<svg width="80" height="79" viewBox="0 0 80 79" fill="none" xmlns="http://www.w3.org/2000/svg">
<rect x="1.29664" y="0.988044" width="77.4071" height="77.4071" rx="38.7036" stroke="white" stroke-width="1.20949"/>
<path d="M52.7732 22.5312C50.8755 20.364 49.8295 17.5813 49.8298 14.7007H41.2495V49.1328C41.1847 50.9966 40.3985 52.7623 39.0567 54.0575C37.7149 55.3526 35.9225 56.0759 34.0577 56.0748C30.1146 56.0748 26.838 52.8537 26.838 48.8551C26.838 44.0791 31.4475 40.497 36.1958 41.9687V33.1941C26.6159 31.9168 18.23 39.3585 18.23 48.8551C18.23 58.1018 25.8939 64.6828 34.0299 64.6828C42.749 64.6828 49.8298 57.602 49.8298 48.8551V31.3892C53.3091 33.8879 57.4864 35.2285 61.77 35.2211V26.6409C61.77 26.6409 56.5496 26.8908 52.7732 22.5312Z" fill="white"/>
</svg>
