<svg width="28" height="28" viewBox="0 0 28 28" fill="none" xmlns="http://www.w3.org/2000/svg">
<path d="M3.13037 21.6085H5.30428C5.30428 20.4554 5.76236 19.3495 6.57773 18.5342C7.39311 17.7188 8.49899 17.2607 9.65211 17.2607C10.8052 17.2607 11.9111 17.7188 12.7265 18.5342C13.5419 19.3495 13.9999 20.4554 13.9999 21.6085H16.1738C16.1738 19.8789 15.4867 18.22 14.2637 16.997C13.0406 15.7739 11.3818 15.0868 9.65211 15.0868C7.92244 15.0868 6.26361 15.7739 5.04054 16.997C3.81748 18.22 3.13037 19.8789 3.13037 21.6085ZM5.30428 9.65203C5.30428 8.49891 5.76236 7.39302 6.57773 6.57765C7.39311 5.76227 8.49899 5.3042 9.65211 5.3042C10.8052 5.3042 11.9111 5.76227 12.7265 6.57765C13.5419 7.39302 13.9999 8.49891 13.9999 9.65203C13.9999 10.8051 13.5419 11.911 12.7265 12.7264C11.9111 13.5418 10.8052 13.9999 9.65211 13.9999C8.49899 13.9999 7.39311 13.5418 6.57773 12.7264C5.76236 11.911 5.30428 10.8051 5.30428 9.65203ZM7.48037 9.6205C7.46947 10.1929 7.68481 10.7465 8.07965 11.1611C8.47449 11.5757 9.01694 11.8178 9.58921 11.8349C10.1615 11.8519 10.7174 11.6425 11.1362 11.2521C11.555 10.8617 11.8029 10.3219 11.826 9.74985V9.65203C11.8127 9.08721 11.5801 8.54975 11.1773 8.15352C10.7746 7.75729 10.2334 7.53341 9.66848 7.52931C9.10352 7.52521 8.55916 7.74122 8.15072 8.13157C7.74228 8.52192 7.50185 9.05594 7.48037 9.6205ZM20.8902 17.2607C20.6436 17.0446 20.3928 16.8333 20.138 16.627L20.0869 16.5857L20.0804 16.5814C18.8238 15.5564 17.2608 14.2803 17.2608 12.6944C17.2609 12.434 17.313 12.1762 17.414 11.9361C17.515 11.696 17.663 11.4786 17.8492 11.2964C18.0353 11.1143 18.256 10.9712 18.4982 10.8755C18.7404 10.7797 18.9993 10.7333 19.2597 10.739C19.5672 10.7382 19.8714 10.8023 20.1524 10.9273C20.4334 11.0522 20.6848 11.2351 20.8902 11.464C21.0956 11.2352 21.347 11.0523 21.6279 10.9273C21.9089 10.8024 22.2131 10.7382 22.5206 10.739C22.7807 10.7339 23.0392 10.7808 23.281 10.8768C23.5228 10.9729 23.743 11.1162 23.9287 11.2984C24.1144 11.4806 24.262 11.698 24.3627 11.9379C24.4634 12.1778 24.5152 12.4353 24.5152 12.6955C24.5152 14.2879 22.9391 15.5727 21.6728 16.6064L21.6695 16.6085L21.6075 16.6596L21.588 16.6759C21.338 16.8814 21.101 17.0749 20.8891 17.2629L20.8902 17.2596V17.2607Z" fill="#1A8FE3"/>
</svg>
