<svg width="466" height="416" viewBox="0 0 466 416" fill="none" xmlns="http://www.w3.org/2000/svg">
<path d="M465.467 127.026C461.251 132.272 456.908 136.875 452.454 140.928C408.799 107.421 335.105 98.2138 287.638 126.311C283.203 128.925 279.006 131.877 275.074 135.16C258.323 149.163 246.319 167.861 232.629 184.872C194.343 232.492 146.106 226.898 92.4623 243.276C50.8595 255.968 31.9184 289.191 30.3789 330.897V331.053C10.0632 300.635 -1.40962 263.368 0.139027 221.58C1.67851 179.874 20.6197 146.65 62.2224 133.95C115.866 117.581 164.103 123.175 202.389 75.5544C216.079 58.5346 228.084 39.8367 244.835 25.8339C248.766 22.551 252.963 19.6073 257.398 16.9847C309.2 -13.6803 392.249 0.0932955 433.385 41.3773C451.281 59.3416 460.61 84.4219 463.964 109.557C464.733 115.362 465.219 121.194 465.467 127.026Z" fill="#00B4D8"/>
<path d="M263.226 273.033C261.558 318.168 275.065 358.031 298.506 389.677C276.889 399.526 254.612 406.853 232.665 411.273C152.072 427.522 72.3482 393.923 30.3789 331.052V330.897C31.9184 289.191 50.8596 255.967 92.4623 243.276C146.106 226.898 194.343 232.492 232.629 184.871C246.319 167.861 258.323 149.163 275.075 135.16C279.006 131.877 283.203 128.924 287.638 126.311C335.105 98.2133 408.799 107.42 452.454 140.928C416.487 173.656 373.043 170.832 325.309 185.403C283.707 198.095 264.775 231.327 263.226 273.033Z" fill="#66D2E7"/>
<path d="M465.375 152.51C464.889 163.505 463.964 174.509 463.038 185.468C455.331 276.555 381.748 351.796 298.506 389.678C275.065 358.031 261.558 318.169 263.226 273.033C264.774 231.328 283.706 198.095 325.309 185.403C373.042 170.832 416.487 173.657 452.454 140.928C456.908 136.875 461.251 132.272 465.466 127.026C465.842 135.5 465.741 144 465.375 152.51Z" fill="#CCF0F7"/>
</svg>
